<?xml version="1.0" encoding="UTF-8"?>
<!DOCTYPE svg PUBLIC "-//W3C//DTD SVG 1.1//EN" "http://www.w3.org/Graphics/SVG/1.1/DTD/svg11.dtd">
<svg width="278mm" height="176mm" viewBox="0 0 27800 17600" version="1.1" baseProfile="tiny" xmlns="http://www.w3.org/2000/svg" stroke-width="28.222" stroke-linejoin="round" xml:space="preserve">
 <path fill="rgb(255,255,255)" stroke="none" d="M 13912,17559 L 0,17559 0,0 27823,0 27823,17559 13912,17559 Z"/>
 <path fill="none" stroke="rgb(179,179,179)" stroke-linejoin="round" d="M 13447,15210 L 2582,15210 2582,1811 24311,1811 24311,15210 13447,15210 Z"/>
 <path fill="none" stroke="rgb(179,179,179)" stroke-linejoin="round" d="M 24311,15209 L 2582,15209"/>
 <path fill="none" stroke="rgb(179,179,179)" stroke-linejoin="round" d="M 24311,13869 L 2582,13869"/>
 <path fill="none" stroke="rgb(179,179,179)" stroke-linejoin="round" d="M 24311,12529 L 2582,12529"/>
 <path fill="none" stroke="rgb(179,179,179)" stroke-linejoin="round" d="M 24311,11189 L 2582,11189"/>
 <path fill="none" stroke="rgb(179,179,179)" stroke-linejoin="round" d="M 24311,9849 L 2582,9849"/>
 <path fill="none" stroke="rgb(179,179,179)" stroke-linejoin="round" d="M 24311,8510 L 2582,8510"/>
 <path fill="none" stroke="rgb(179,179,179)" stroke-linejoin="round" d="M 24311,7170 L 2582,7170"/>
 <path fill="none" stroke="rgb(179,179,179)" stroke-linejoin="round" d="M 24311,5830 L 2582,5830"/>
 <path fill="none" stroke="rgb(179,179,179)" stroke-linejoin="round" d="M 24311,4490 L 2582,4490"/>
 <path fill="none" stroke="rgb(179,179,179)" stroke-linejoin="round" d="M 24311,3149 L 2582,3149"/>
 <path fill="none" stroke="rgb(179,179,179)" stroke-linejoin="round" d="M 24311,1810 L 2582,1810"/>
 <path fill="none" stroke="rgb(179,179,179)" stroke-linejoin="round" d="M 2582,15359 L 2582,15209"/>
 <path fill="none" stroke="rgb(179,179,179)" stroke-linejoin="round" d="M 2582,15359 L 2582,15209"/>
 <path fill="none" stroke="rgb(179,179,179)" stroke-linejoin="round" d="M 3125,15359 L 3125,15209"/>
 <path fill="none" stroke="rgb(179,179,179)" stroke-linejoin="round" d="M 3125,15359 L 3125,15209"/>
 <path fill="none" stroke="rgb(179,179,179)" stroke-linejoin="round" d="M 3668,15359 L 3668,15209"/>
 <path fill="none" stroke="rgb(179,179,179)" stroke-linejoin="round" d="M 3668,15359 L 3668,15209"/>
 <path fill="none" stroke="rgb(179,179,179)" stroke-linejoin="round" d="M 4211,15359 L 4211,15209"/>
 <path fill="none" stroke="rgb(179,179,179)" stroke-linejoin="round" d="M 4211,15359 L 4211,15209"/>
 <path fill="none" stroke="rgb(179,179,179)" stroke-linejoin="round" d="M 4755,15359 L 4755,15209"/>
 <path fill="none" stroke="rgb(179,179,179)" stroke-linejoin="round" d="M 4755,15359 L 4755,15209"/>
 <path fill="none" stroke="rgb(179,179,179)" stroke-linejoin="round" d="M 5298,15359 L 5298,15209"/>
 <path fill="none" stroke="rgb(179,179,179)" stroke-linejoin="round" d="M 5298,15359 L 5298,15209"/>
 <path fill="none" stroke="rgb(179,179,179)" stroke-linejoin="round" d="M 5841,15359 L 5841,15209"/>
 <path fill="none" stroke="rgb(179,179,179)" stroke-linejoin="round" d="M 5841,15359 L 5841,15209"/>
 <path fill="none" stroke="rgb(179,179,179)" stroke-linejoin="round" d="M 6384,15359 L 6384,15209"/>
 <path fill="none" stroke="rgb(179,179,179)" stroke-linejoin="round" d="M 6384,15359 L 6384,15209"/>
 <path fill="none" stroke="rgb(179,179,179)" stroke-linejoin="round" d="M 6928,15359 L 6928,15209"/>
 <path fill="none" stroke="rgb(179,179,179)" stroke-linejoin="round" d="M 6928,15359 L 6928,15209"/>
 <path fill="none" stroke="rgb(179,179,179)" stroke-linejoin="round" d="M 7471,15359 L 7471,15209"/>
 <path fill="none" stroke="rgb(179,179,179)" stroke-linejoin="round" d="M 7471,15359 L 7471,15209"/>
 <path fill="none" stroke="rgb(179,179,179)" stroke-linejoin="round" d="M 8014,15359 L 8014,15209"/>
 <path fill="none" stroke="rgb(179,179,179)" stroke-linejoin="round" d="M 8014,15359 L 8014,15209"/>
 <path fill="none" stroke="rgb(179,179,179)" stroke-linejoin="round" d="M 8557,15359 L 8557,15209"/>
 <path fill="none" stroke="rgb(179,179,179)" stroke-linejoin="round" d="M 8557,15359 L 8557,15209"/>
 <path fill="none" stroke="rgb(179,179,179)" stroke-linejoin="round" d="M 9101,15359 L 9101,15209"/>
 <path fill="none" stroke="rgb(179,179,179)" stroke-linejoin="round" d="M 9101,15359 L 9101,15209"/>
 <path fill="none" stroke="rgb(179,179,179)" stroke-linejoin="round" d="M 9644,15359 L 9644,15209"/>
 <path fill="none" stroke="rgb(179,179,179)" stroke-linejoin="round" d="M 9644,15359 L 9644,15209"/>
 <path fill="none" stroke="rgb(179,179,179)" stroke-linejoin="round" d="M 10187,15359 L 10187,15209"/>
 <path fill="none" stroke="rgb(179,179,179)" stroke-linejoin="round" d="M 10187,15359 L 10187,15209"/>
 <path fill="none" stroke="rgb(179,179,179)" stroke-linejoin="round" d="M 10730,15359 L 10730,15209"/>
 <path fill="none" stroke="rgb(179,179,179)" stroke-linejoin="round" d="M 10730,15359 L 10730,15209"/>
 <path fill="none" stroke="rgb(179,179,179)" stroke-linejoin="round" d="M 11274,15359 L 11274,15209"/>
 <path fill="none" stroke="rgb(179,179,179)" stroke-linejoin="round" d="M 11274,15359 L 11274,15209"/>
 <path fill="none" stroke="rgb(179,179,179)" stroke-linejoin="round" d="M 11817,15359 L 11817,15209"/>
 <path fill="none" stroke="rgb(179,179,179)" stroke-linejoin="round" d="M 11817,15359 L 11817,15209"/>
 <path fill="none" stroke="rgb(179,179,179)" stroke-linejoin="round" d="M 12360,15359 L 12360,15209"/>
 <path fill="none" stroke="rgb(179,179,179)" stroke-linejoin="round" d="M 12360,15359 L 12360,15209"/>
 <path fill="none" stroke="rgb(179,179,179)" stroke-linejoin="round" d="M 12903,15359 L 12903,15209"/>
 <path fill="none" stroke="rgb(179,179,179)" stroke-linejoin="round" d="M 12903,15359 L 12903,15209"/>
 <path fill="none" stroke="rgb(179,179,179)" stroke-linejoin="round" d="M 13447,15359 L 13447,15209"/>
 <path fill="none" stroke="rgb(179,179,179)" stroke-linejoin="round" d="M 13447,15359 L 13447,15209"/>
 <path fill="none" stroke="rgb(179,179,179)" stroke-linejoin="round" d="M 13989,15359 L 13989,15209"/>
 <path fill="none" stroke="rgb(179,179,179)" stroke-linejoin="round" d="M 13989,15359 L 13989,15209"/>
 <path fill="none" stroke="rgb(179,179,179)" stroke-linejoin="round" d="M 14532,15359 L 14532,15209"/>
 <path fill="none" stroke="rgb(179,179,179)" stroke-linejoin="round" d="M 14532,15359 L 14532,15209"/>
 <path fill="none" stroke="rgb(179,179,179)" stroke-linejoin="round" d="M 15075,15359 L 15075,15209"/>
 <path fill="none" stroke="rgb(179,179,179)" stroke-linejoin="round" d="M 15075,15359 L 15075,15209"/>
 <path fill="none" stroke="rgb(179,179,179)" stroke-linejoin="round" d="M 15619,15359 L 15619,15209"/>
 <path fill="none" stroke="rgb(179,179,179)" stroke-linejoin="round" d="M 15619,15359 L 15619,15209"/>
 <path fill="none" stroke="rgb(179,179,179)" stroke-linejoin="round" d="M 16162,15359 L 16162,15209"/>
 <path fill="none" stroke="rgb(179,179,179)" stroke-linejoin="round" d="M 16162,15359 L 16162,15209"/>
 <path fill="none" stroke="rgb(179,179,179)" stroke-linejoin="round" d="M 16705,15359 L 16705,15209"/>
 <path fill="none" stroke="rgb(179,179,179)" stroke-linejoin="round" d="M 16705,15359 L 16705,15209"/>
 <path fill="none" stroke="rgb(179,179,179)" stroke-linejoin="round" d="M 17248,15359 L 17248,15209"/>
 <path fill="none" stroke="rgb(179,179,179)" stroke-linejoin="round" d="M 17248,15359 L 17248,15209"/>
 <path fill="none" stroke="rgb(179,179,179)" stroke-linejoin="round" d="M 17792,15359 L 17792,15209"/>
 <path fill="none" stroke="rgb(179,179,179)" stroke-linejoin="round" d="M 17792,15359 L 17792,15209"/>
 <path fill="none" stroke="rgb(179,179,179)" stroke-linejoin="round" d="M 18335,15359 L 18335,15209"/>
 <path fill="none" stroke="rgb(179,179,179)" stroke-linejoin="round" d="M 18335,15359 L 18335,15209"/>
 <path fill="none" stroke="rgb(179,179,179)" stroke-linejoin="round" d="M 18878,15359 L 18878,15209"/>
 <path fill="none" stroke="rgb(179,179,179)" stroke-linejoin="round" d="M 18878,15359 L 18878,15209"/>
 <path fill="none" stroke="rgb(179,179,179)" stroke-linejoin="round" d="M 19421,15359 L 19421,15209"/>
 <path fill="none" stroke="rgb(179,179,179)" stroke-linejoin="round" d="M 19421,15359 L 19421,15209"/>
 <path fill="none" stroke="rgb(179,179,179)" stroke-linejoin="round" d="M 19965,15359 L 19965,15209"/>
 <path fill="none" stroke="rgb(179,179,179)" stroke-linejoin="round" d="M 19965,15359 L 19965,15209"/>
 <path fill="none" stroke="rgb(179,179,179)" stroke-linejoin="round" d="M 20508,15359 L 20508,15209"/>
 <path fill="none" stroke="rgb(179,179,179)" stroke-linejoin="round" d="M 20508,15359 L 20508,15209"/>
 <path fill="none" stroke="rgb(179,179,179)" stroke-linejoin="round" d="M 21051,15359 L 21051,15209"/>
 <path fill="none" stroke="rgb(179,179,179)" stroke-linejoin="round" d="M 21051,15359 L 21051,15209"/>
 <path fill="none" stroke="rgb(179,179,179)" stroke-linejoin="round" d="M 21594,15359 L 21594,15209"/>
 <path fill="none" stroke="rgb(179,179,179)" stroke-linejoin="round" d="M 21594,15359 L 21594,15209"/>
 <path fill="none" stroke="rgb(179,179,179)" stroke-linejoin="round" d="M 22138,15359 L 22138,15209"/>
 <path fill="none" stroke="rgb(179,179,179)" stroke-linejoin="round" d="M 22138,15359 L 22138,15209"/>
 <path fill="none" stroke="rgb(179,179,179)" stroke-linejoin="round" d="M 22681,15359 L 22681,15209"/>
 <path fill="none" stroke="rgb(179,179,179)" stroke-linejoin="round" d="M 22681,15359 L 22681,15209"/>
 <path fill="none" stroke="rgb(179,179,179)" stroke-linejoin="round" d="M 23224,15359 L 23224,15209"/>
 <path fill="none" stroke="rgb(179,179,179)" stroke-linejoin="round" d="M 23224,15359 L 23224,15209"/>
 <path fill="none" stroke="rgb(179,179,179)" stroke-linejoin="round" d="M 23767,15359 L 23767,15209"/>
 <path fill="none" stroke="rgb(179,179,179)" stroke-linejoin="round" d="M 23767,15359 L 23767,15209"/>
 <path fill="none" stroke="rgb(179,179,179)" stroke-linejoin="round" d="M 24311,15359 L 24311,15209"/>
 <path fill="none" stroke="rgb(179,179,179)" stroke-linejoin="round" d="M 24311,15359 L 24311,15209"/>
 <path fill="none" stroke="rgb(179,179,179)" stroke-linejoin="round" d="M 2582,15209 L 24311,15209"/>
 <path fill="none" stroke="rgb(179,179,179)" stroke-linejoin="round" d="M 2432,15209 L 2582,15209"/>
 <path fill="none" stroke="rgb(179,179,179)" stroke-linejoin="round" d="M 2432,15209 L 2582,15209"/>
 <path fill="none" stroke="rgb(179,179,179)" stroke-linejoin="round" d="M 2432,13869 L 2582,13869"/>
 <path fill="none" stroke="rgb(179,179,179)" stroke-linejoin="round" d="M 2432,13869 L 2582,13869"/>
 <path fill="none" stroke="rgb(179,179,179)" stroke-linejoin="round" d="M 2432,12529 L 2582,12529"/>
 <path fill="none" stroke="rgb(179,179,179)" stroke-linejoin="round" d="M 2432,12529 L 2582,12529"/>
 <path fill="none" stroke="rgb(179,179,179)" stroke-linejoin="round" d="M 2432,11189 L 2582,11189"/>
 <path fill="none" stroke="rgb(179,179,179)" stroke-linejoin="round" d="M 2432,11189 L 2582,11189"/>
 <path fill="none" stroke="rgb(179,179,179)" stroke-linejoin="round" d="M 2432,9849 L 2582,9849"/>
 <path fill="none" stroke="rgb(179,179,179)" stroke-linejoin="round" d="M 2432,9849 L 2582,9849"/>
 <path fill="none" stroke="rgb(179,179,179)" stroke-linejoin="round" d="M 2432,8510 L 2582,8510"/>
 <path fill="none" stroke="rgb(179,179,179)" stroke-linejoin="round" d="M 2432,8510 L 2582,8510"/>
 <path fill="none" stroke="rgb(179,179,179)" stroke-linejoin="round" d="M 2432,7170 L 2582,7170"/>
 <path fill="none" stroke="rgb(179,179,179)" stroke-linejoin="round" d="M 2432,7170 L 2582,7170"/>
 <path fill="none" stroke="rgb(179,179,179)" stroke-linejoin="round" d="M 2432,5830 L 2582,5830"/>
 <path fill="none" stroke="rgb(179,179,179)" stroke-linejoin="round" d="M 2432,5830 L 2582,5830"/>
 <path fill="none" stroke="rgb(179,179,179)" stroke-linejoin="round" d="M 2432,4490 L 2582,4490"/>
 <path fill="none" stroke="rgb(179,179,179)" stroke-linejoin="round" d="M 2432,4490 L 2582,4490"/>
 <path fill="none" stroke="rgb(179,179,179)" stroke-linejoin="round" d="M 2432,3150 L 2582,3150"/>
 <path fill="none" stroke="rgb(179,179,179)" stroke-linejoin="round" d="M 2432,3150 L 2582,3150"/>
 <path fill="none" stroke="rgb(179,179,179)" stroke-linejoin="round" d="M 2432,1810 L 2582,1810"/>
 <path fill="none" stroke="rgb(179,179,179)" stroke-linejoin="round" d="M 2432,1810 L 2582,1810"/>
 <path fill="none" stroke="rgb(179,179,179)" stroke-linejoin="round" d="M 2582,15209 L 2582,1810"/>
 <path fill="none" stroke="rgb(0,69,134)" stroke-width="80" stroke-linejoin="round" d="M 2582,13866 L 2609,13866 2636,13866 2663,13866 2690,13866 2717,13867 2744,13867 2772,13867 2799,13867 2826,13867 2853,13868 2880,13868 2907,13868 2935,13868 2962,13869 2989,13869 3016,13869 3043,13870 3070,13870 3098,13871 3125,13871 3152,13872 3179,13872 3206,13873 3233,13873 3261,13874 3288,13874 3315,13875 3342,13875 3369,13876 3396,13876 3424,13877 3451,13877 3478,13877 3505,13878 3532,13878 3559,13878 3587,13878 3614,13877 3641,13877 3668,13877 3695,13876 3722,13875 3749,13874 3777,13874 3804,13872 3831,13871 3858,13870 3885,13869 3912,13868 3940,13867 3967,13865 3994,13864 4021,13863 4048,13861 4075,13860 4103,13859 4130,13858 4157,13857 4184,13856 4211,13855 4238,13854 4266,13854 4293,13853 4320,13853 4347,13852 4374,13852 4401,13852 4429,13852 4456,13852 4483,13852 4510,13852 4537,13852 4564,13853 4592,13853 4619,13854 4646,13854 4673,13855 4700,13856 4727,13857 4755,13858 4782,13859 4809,13860 4836,13861 4863,13862 4890,13864 4917,13865 4945,13866 4972,13867 4999,13869 5026,13870 5053,13871 5080,13872 5108,13874 5135,13875 5162,13876 5189,13877 5216,13877 5243,13878 5271,13879 5298,13879 5325,13880 5352,13880 5379,13880 5406,13880 5434,13880 5461,13880 5488,13880 5515,13879 5542,13879 5569,13879 5597,13878 5624,13878 5651,13878 5678,13877 5705,13877 5732,13877 5760,13877 5787,13877 5814,13876 5841,13877 5868,13877 5895,13877 5922,13877 5950,13878 5977,13878 6004,13879 6031,13879 6058,13880 6085,13880 6113,13881 6140,13882 6167,13882 6194,13883 6221,13884 6248,13885 6276,13885 6303,13886 6330,13886 6357,13887 6384,13887 6411,13888 6439,13888 6466,13888 6493,13888 6520,13888 6547,13889 6574,13889 6602,13888 6629,13888 6656,13888 6683,13888 6710,13888 6737,13887 6765,13887 6792,13887 6819,13886 6846,13886 6873,13886 6900,13885 6928,13885 6955,13884 6982,13884 7009,13883 7036,13882 7063,13882 7090,13881 7118,13880 7145,13879 7172,13879 7199,13878 7226,13877 7253,13875 7281,13874 7308,13873 7335,13872 7362,13870 7389,13869 7416,13867 7444,13865 7471,13863 7498,13861 7525,13859 7552,13857 7579,13854 7607,13852 7634,13850 7661,13848 7688,13846 7715,13844 7742,13842 7770,13840 7797,13838 7824,13837 7851,13836 7878,13835 7905,13835 7933,13835 7960,13835 7987,13835 8014,13836 8041,13838 8068,13840 8095,13842 8123,13844 8150,13847 8177,13850 8204,13852 8231,13855 8258,13858 8286,13860 8313,13863 8340,13865 8367,13866 8394,13868 8421,13869 8449,13869 8476,13868 8503,13867 8530,13866 8557,13863 8584,13860 8612,13856 8639,13851 8666,13846 8693,13840 8720,13834 8747,13828 8775,13822 8802,13816 8829,13810 8856,13805 8883,13800 8910,13796 8938,13792 8965,13790 8992,13788 9019,13787 9046,13788 9073,13790 9101,13793 9128,13798 9155,13805 9182,13811 9209,13819 9236,13826 9263,13832 9291,13837 9318,13841 9345,13844 9372,13843 9399,13840 9426,13834 9454,13824 9481,13810 9508,13792 9535,13768 9562,13740 9589,13705 9617,13664 9644,13617 9671,13562 9698,13501 9725,13435 9752,13364 9780,13289 9807,13211 9834,13131 9861,13049 9888,12967 9915,12885 9943,12804 9970,12725 9997,12648 10024,12575 10051,12506 10078,12442 10106,12384 10133,12332 10160,12288 10187,12252 10214,12226 10241,12207 10268,12196 10296,12192 10323,12194 10350,12201 10377,12213 10404,12229 10431,12248 10459,12269 10486,12292 10513,12315 10540,12339 10567,12362 10594,12383 10622,12403 10649,12419 10676,12432 10703,12440 10730,12443 10757,12440 10785,12431 10812,12417 10839,12398 10866,12374 10893,12345 10920,12311 10948,12273 10975,12231 11002,12186 11029,12136 11056,12084 11083,12028 11111,11970 11138,11909 11165,11846 11192,11781 11219,11713 11246,11645 11274,11574 11301,11503 11328,11432 11355,11360 11382,11289 11409,11219 11436,11152 11464,11087 11491,11025 11518,10967 11545,10913 11572,10864 11599,10821 11627,10784 11654,10753 11681,10731 11708,10716 11735,10710 11762,10713 11790,10726 11817,10749 11844,10783 11871,10827 11898,10881 11925,10943 11953,11011 11980,11086 12007,11167 12034,11251 12061,11339 12088,11429 12116,11520 12143,11612 12170,11704 12197,11793 12224,11881 12251,11964 12279,12043 12306,12117 12333,12184 12360,12244 12387,12296 12414,12340 12441,12377 12469,12407 12496,12431 12523,12449 12550,12461 12577,12470 12604,12474 12632,12474 12659,12472 12686,12467 12713,12460 12740,12452 12767,12443 12795,12433 12822,12424 12849,12415 12876,12408 12903,12403 12930,12399 12958,12398 12985,12399 13012,12401 13039,12406 13066,12411 13093,12418 13121,12426 13148,12435 13175,12444 13202,12454 13229,12465 13256,12475 13284,12486 13311,12496 13338,12506 13365,12516 13392,12525 13419,12532 13447,12539 13474,12545 13501,12549 13528,12552 13555,12554 13582,12556 13609,12556 13637,12555 13664,12554 13691,12552 13718,12549 13745,12545 13772,12542 13800,12537 13827,12532 13854,12527 13881,12522 13908,12516 13934,12511 13962,12505 13989,12499 14016,12493 14043,12488 14070,12482 14097,12475 14125,12469 14152,12461 14179,12453 14206,12444 14233,12434 14260,12423 14288,12411 14315,12397 14342,12382 14369,12366 14396,12347 14423,12327 14451,12304 14478,12279 14505,12252 14532,12223 14559,12191 14586,12157 14613,12120 14641,12082 14668,12041 14695,11999 14722,11955 14749,11910 14776,11863 14804,11816 14831,11768 14858,11718 14885,11669 14912,11619 14939,11569 14967,11518 14994,11468 15021,11418 15048,11369 15075,11320 15102,11272 15130,11225 15157,11180 15184,11138 15211,11099 15238,11064 15265,11032 15293,11006 15320,10985 15347,10970 15374,10961 15401,10959 15428,10965 15456,10979 15483,11002 15510,11035 15537,11077 15564,11130 15591,11193 15619,11269 15646,11356 15673,11452 15700,11555 15727,11660 15754,11766 15781,11868 15809,11965 15836,12053 15863,12129 15890,12190 15917,12232 15944,12254 15972,12252 15999,12222 16026,12163 16053,12070 16080,11941 16107,11773 16135,11562 16162,11306 16189,11004 16216,10658 16243,10276 16270,9861 16298,9420 16325,8957 16352,8480 16379,7992 16406,7500 16433,7008 16461,6522 16488,6048 16515,5592 16542,5157 16569,4751 16596,4379 16624,4045 16651,3755 16678,3516 16705,3332 16732,3207 16759,3139 16786,3123 16814,3157 16841,3236 16868,3357 16895,3515 16922,3706 16949,3927 16977,4173 17004,4442 17031,4728 17058,5029 17085,5340 17112,5656 17140,5976 17167,6294 17194,6606 17221,6909 17248,7199 17275,7473 17303,7730 17330,7973 17357,8202 17384,8417 17411,8622 17438,8814 17466,8997 17493,9172 17520,9339 17547,9500 17574,9655 17601,9806 17629,9953 17656,10098 17683,10242 17710,10385 17737,10529 17764,10675 17792,10824 17819,10977 17846,11132 17873,11290 17900,11450 17927,11611 17954,11772 17982,11932 18009,12091 18036,12248 18063,12403 18090,12553 18117,12699 18145,12841 18172,12976 18199,13105 18226,13227 18253,13340 18280,13445 18308,13540 18335,13625 18362,13699 18389,13762 18416,13816 18443,13861 18471,13897 18498,13925 18525,13947 18552,13962 18579,13971 18606,13975 18634,13974 18661,13970 18688,13962 18715,13952 18742,13940 18769,13927 18797,13914 18824,13900 18851,13888 18878,13877 18905,13867 18932,13860 18959,13855 18987,13851 19014,13849 19041,13848 19068,13848 19095,13849 19122,13852 19150,13855 19177,13859 19204,13863 19231,13868 19258,13873 19285,13877 19313,13882 19340,13887 19367,13891 19394,13895 19421,13898 19448,13900 19476,13902 19503,13903 19530,13903 19557,13902 19584,13902 19611,13900 19639,13899 19666,13896 19693,13894 19720,13892 19747,13889 19774,13886 19802,13883 19829,13880 19856,13878 19883,13875 19910,13873 19937,13870 19965,13869 19992,13867 20019,13866 20046,13865 20073,13865 20100,13864 20127,13864 20155,13865 20182,13865 20209,13866 20236,13866 20263,13867 20290,13868 20318,13869 20345,13870 20372,13872 20399,13873 20426,13874 20453,13875 20481,13876 20508,13877 20535,13877 20562,13878 20589,13878 20616,13879 20644,13879 20671,13879 20698,13879 20725,13879 20752,13879 20779,13879 20807,13879 20834,13879 20861,13879 20888,13879 20915,13879 20942,13879 20970,13879 20997,13879 21024,13879 21051,13879 21078,13879 21105,13880 21132,13880 21160,13880 21187,13881 21214,13881 21241,13881 21268,13882 21295,13882 21323,13883 21350,13883 21377,13883 21404,13884 21431,13884 21458,13884 21486,13885 21513,13885 21540,13885 21567,13885 21594,13885 21621,13884 21649,13884 21676,13884 21703,13883 21730,13883 21757,13882 21784,13881 21812,13881 21839,13880 21866,13879 21893,13879 21920,13878 21947,13877 21975,13877 22002,13876 22029,13876 22056,13875 22083,13875 22110,13874 22138,13874 22165,13874 22192,13874 22219,13873 22246,13873 22273,13874 22300,13874 22328,13874 22355,13874 22382,13874 22409,13875 22436,13875 22463,13875 22491,13875 22518,13876 22545,13876 22572,13876 22599,13876 22626,13876 22654,13876 22681,13877 22708,13877 22735,13876 22762,13876 22789,13876 22817,13876 22844,13876 22871,13875 22898,13875 22925,13875 22952,13874 22980,13874 23007,13874 23034,13873 23061,13873 23088,13873 23115,13872 23143,13872 23170,13872 23197,13871 23224,13871 23251,13871 23278,13871 23305,13871 23333,13871 23360,13871 23387,13871 23414,13871 23441,13871 23468,13871 23496,13871 23523,13871 23550,13871 23577,13871 23604,13871 23631,13871 23659,13871 23686,13871 23713,13871 23740,13871 23767,13871 23794,13871 23822,13871 23849,13871 23876,13871 23903,13871 23930,13871 23957,13871 23985,13871 24012,13870 24039,13870 24066,13870 24093,13870 24120,13870 24148,13870 24175,13869 24202,13869 24229,13869 24256,13869 24283,13869 24311,13869"/>
 <path fill="rgb(0,69,134)" stroke="none" d="M 2457,13741 L 2457,13991 2707,13991 2707,13741 2457,13741 Z"/>
 <path fill="none" stroke="rgb(0,69,134)" stroke-linejoin="round" d="M 2457,13741 L 2457,13991 2707,13991 2707,13741 2457,13741 Z"/>
 <path fill="rgb(0,69,134)" stroke="none" d="M 3000,13746 L 3000,13996 3250,13996 3250,13746 3000,13746 Z"/>
 <path fill="none" stroke="rgb(0,69,134)" stroke-linejoin="round" d="M 3000,13746 L 3000,13996 3250,13996 3250,13746 3000,13746 Z"/>
 <path fill="rgb(0,69,134)" stroke="none" d="M 3543,13752 L 3543,14002 3793,14002 3793,13752 3543,13752 Z"/>
 <path fill="none" stroke="rgb(0,69,134)" stroke-linejoin="round" d="M 3543,13752 L 3543,14002 3793,14002 3793,13752 3543,13752 Z"/>
 <path fill="rgb(0,69,134)" stroke="none" d="M 4086,13730 L 4086,13980 4336,13980 4336,13730 4086,13730 Z"/>
 <path fill="none" stroke="rgb(0,69,134)" stroke-linejoin="round" d="M 4086,13730 L 4086,13980 4336,13980 4336,13730 4086,13730 Z"/>
 <path fill="rgb(0,69,134)" stroke="none" d="M 4630,13733 L 4630,13983 4880,13983 4880,13733 4630,13733 Z"/>
 <path fill="none" stroke="rgb(0,69,134)" stroke-linejoin="round" d="M 4630,13733 L 4630,13983 4880,13983 4880,13733 4630,13733 Z"/>
 <path fill="rgb(0,69,134)" stroke="none" d="M 5173,13754 L 5173,14004 5423,14004 5423,13754 5173,13754 Z"/>
 <path fill="none" stroke="rgb(0,69,134)" stroke-linejoin="round" d="M 5173,13754 L 5173,14004 5423,14004 5423,13754 5173,13754 Z"/>
 <path fill="rgb(0,69,134)" stroke="none" d="M 5716,13752 L 5716,14002 5966,14002 5966,13752 5716,13752 Z"/>
 <path fill="none" stroke="rgb(0,69,134)" stroke-linejoin="round" d="M 5716,13752 L 5716,14002 5966,14002 5966,13752 5716,13752 Z"/>
 <path fill="rgb(0,69,134)" stroke="none" d="M 6259,13762 L 6259,14012 6509,14012 6509,13762 6259,13762 Z"/>
 <path fill="none" stroke="rgb(0,69,134)" stroke-linejoin="round" d="M 6259,13762 L 6259,14012 6509,14012 6509,13762 6259,13762 Z"/>
 <path fill="rgb(0,69,134)" stroke="none" d="M 6803,13760 L 6803,14010 7053,14010 7053,13760 6803,13760 Z"/>
 <path fill="none" stroke="rgb(0,69,134)" stroke-linejoin="round" d="M 6803,13760 L 6803,14010 7053,14010 7053,13760 6803,13760 Z"/>
 <path fill="rgb(0,69,134)" stroke="none" d="M 7346,13738 L 7346,13988 7596,13988 7596,13738 7346,13738 Z"/>
 <path fill="none" stroke="rgb(0,69,134)" stroke-linejoin="round" d="M 7346,13738 L 7346,13988 7596,13988 7596,13738 7346,13738 Z"/>
 <path fill="rgb(0,69,134)" stroke="none" d="M 7889,13711 L 7889,13961 8139,13961 8139,13711 7889,13711 Z"/>
 <path fill="none" stroke="rgb(0,69,134)" stroke-linejoin="round" d="M 7889,13711 L 7889,13961 8139,13961 8139,13711 7889,13711 Z"/>
 <path fill="rgb(0,69,134)" stroke="none" d="M 8432,13738 L 8432,13988 8682,13988 8682,13738 8432,13738 Z"/>
 <path fill="none" stroke="rgb(0,69,134)" stroke-linejoin="round" d="M 8432,13738 L 8432,13988 8682,13988 8682,13738 8432,13738 Z"/>
 <path fill="rgb(0,69,134)" stroke="none" d="M 8976,13668 L 8976,13918 9226,13918 9226,13668 8976,13668 Z"/>
 <path fill="none" stroke="rgb(0,69,134)" stroke-linejoin="round" d="M 8976,13668 L 8976,13918 9226,13918 9226,13668 8976,13668 Z"/>
 <path fill="rgb(0,69,134)" stroke="none" d="M 9519,13492 L 9519,13742 9769,13742 9769,13492 9519,13492 Z"/>
 <path fill="none" stroke="rgb(0,69,134)" stroke-linejoin="round" d="M 9519,13492 L 9519,13742 9769,13742 9769,13492 9519,13492 Z"/>
 <path fill="rgb(0,69,134)" stroke="none" d="M 10062,12127 L 10062,12377 10312,12377 10312,12127 10062,12127 Z"/>
 <path fill="none" stroke="rgb(0,69,134)" stroke-linejoin="round" d="M 10062,12127 L 10062,12377 10312,12377 10312,12127 10062,12127 Z"/>
 <path fill="rgb(0,69,134)" stroke="none" d="M 10605,12318 L 10605,12568 10855,12568 10855,12318 10605,12318 Z"/>
 <path fill="none" stroke="rgb(0,69,134)" stroke-linejoin="round" d="M 10605,12318 L 10605,12568 10855,12568 10855,12318 10605,12318 Z"/>
 <path fill="rgb(0,69,134)" stroke="none" d="M 11149,11449 L 11149,11699 11399,11699 11399,11449 11149,11449 Z"/>
 <path fill="none" stroke="rgb(0,69,134)" stroke-linejoin="round" d="M 11149,11449 L 11149,11699 11399,11699 11399,11449 11149,11449 Z"/>
 <path fill="rgb(0,69,134)" stroke="none" d="M 11692,10624 L 11692,10874 11942,10874 11942,10624 11692,10624 Z"/>
 <path fill="none" stroke="rgb(0,69,134)" stroke-linejoin="round" d="M 11692,10624 L 11692,10874 11942,10874 11942,10624 11692,10624 Z"/>
 <path fill="rgb(0,69,134)" stroke="none" d="M 12235,12119 L 12235,12369 12485,12369 12485,12119 12235,12119 Z"/>
 <path fill="none" stroke="rgb(0,69,134)" stroke-linejoin="round" d="M 12235,12119 L 12235,12369 12485,12369 12485,12119 12235,12119 Z"/>
 <path fill="rgb(0,69,134)" stroke="none" d="M 12778,12278 L 12778,12528 13028,12528 13028,12278 12778,12278 Z"/>
 <path fill="none" stroke="rgb(0,69,134)" stroke-linejoin="round" d="M 12778,12278 L 12778,12528 13028,12528 13028,12278 12778,12278 Z"/>
 <path fill="rgb(0,69,134)" stroke="none" d="M 13322,12414 L 13322,12664 13572,12664 13572,12414 13322,12414 Z"/>
 <path fill="none" stroke="rgb(0,69,134)" stroke-linejoin="round" d="M 13322,12414 L 13322,12664 13572,12664 13572,12414 13322,12414 Z"/>
 <path fill="rgb(0,69,134)" stroke="none" d="M 13865,12374 L 13865,12624 14114,12624 14114,12374 13865,12374 Z"/>
 <path fill="none" stroke="rgb(0,69,134)" stroke-linejoin="round" d="M 13865,12374 L 13865,12624 14114,12624 14114,12374 13865,12374 Z"/>
 <path fill="rgb(0,69,134)" stroke="none" d="M 14407,12098 L 14407,12348 14657,12348 14657,12098 14407,12098 Z"/>
 <path fill="none" stroke="rgb(0,69,134)" stroke-linejoin="round" d="M 14407,12098 L 14407,12348 14657,12348 14657,12098 14407,12098 Z"/>
 <path fill="rgb(0,69,134)" stroke="none" d="M 14950,11195 L 14950,11445 15200,11445 15200,11195 14950,11195 Z"/>
 <path fill="none" stroke="rgb(0,69,134)" stroke-linejoin="round" d="M 14950,11195 L 14950,11445 15200,11445 15200,11195 14950,11195 Z"/>
 <path fill="rgb(0,69,134)" stroke="none" d="M 15494,11144 L 15494,11394 15744,11394 15744,11144 15494,11144 Z"/>
 <path fill="none" stroke="rgb(0,69,134)" stroke-linejoin="round" d="M 15494,11144 L 15494,11394 15744,11394 15744,11144 15494,11144 Z"/>
 <path fill="rgb(0,69,134)" stroke="none" d="M 16037,11181 L 16037,11431 16287,11431 16287,11181 16037,11181 Z"/>
 <path fill="none" stroke="rgb(0,69,134)" stroke-linejoin="round" d="M 16037,11181 L 16037,11431 16287,11431 16287,11181 16037,11181 Z"/>
 <path fill="rgb(0,69,134)" stroke="none" d="M 16580,3207 L 16580,3457 16830,3457 16830,3207 16580,3207 Z"/>
 <path fill="none" stroke="rgb(0,69,134)" stroke-linejoin="round" d="M 16580,3207 L 16580,3457 16830,3457 16830,3207 16580,3207 Z"/>
 <path fill="rgb(0,69,134)" stroke="none" d="M 17123,7074 L 17123,7324 17373,7324 17373,7074 17123,7074 Z"/>
 <path fill="none" stroke="rgb(0,69,134)" stroke-linejoin="round" d="M 17123,7074 L 17123,7324 17373,7324 17373,7074 17123,7074 Z"/>
 <path fill="rgb(0,69,134)" stroke="none" d="M 17667,10699 L 17667,10949 17917,10949 17917,10699 17667,10699 Z"/>
 <path fill="none" stroke="rgb(0,69,134)" stroke-linejoin="round" d="M 17667,10699 L 17667,10949 17917,10949 17917,10699 17667,10699 Z"/>
 <path fill="rgb(0,69,134)" stroke="none" d="M 18210,13500 L 18210,13750 18460,13750 18460,13500 18210,13500 Z"/>
 <path fill="none" stroke="rgb(0,69,134)" stroke-linejoin="round" d="M 18210,13500 L 18210,13750 18460,13750 18460,13500 18210,13500 Z"/>
 <path fill="rgb(0,69,134)" stroke="none" d="M 18753,13752 L 18753,14002 19003,14002 19003,13752 18753,13752 Z"/>
 <path fill="none" stroke="rgb(0,69,134)" stroke-linejoin="round" d="M 18753,13752 L 18753,14002 19003,14002 19003,13752 18753,13752 Z"/>
 <path fill="rgb(0,69,134)" stroke="none" d="M 19296,13773 L 19296,14023 19546,14023 19546,13773 19296,13773 Z"/>
 <path fill="none" stroke="rgb(0,69,134)" stroke-linejoin="round" d="M 19296,13773 L 19296,14023 19546,14023 19546,13773 19296,13773 Z"/>
 <path fill="rgb(0,69,134)" stroke="none" d="M 19840,13744 L 19840,13994 20090,13994 20090,13744 19840,13744 Z"/>
 <path fill="none" stroke="rgb(0,69,134)" stroke-linejoin="round" d="M 19840,13744 L 19840,13994 20090,13994 20090,13744 19840,13744 Z"/>
 <path fill="rgb(0,69,134)" stroke="none" d="M 20383,13752 L 20383,14002 20633,14002 20633,13752 20383,13752 Z"/>
 <path fill="none" stroke="rgb(0,69,134)" stroke-linejoin="round" d="M 20383,13752 L 20383,14002 20633,14002 20633,13752 20383,13752 Z"/>
 <path fill="rgb(0,69,134)" stroke="none" d="M 20926,13754 L 20926,14004 21176,14004 21176,13754 20926,13754 Z"/>
 <path fill="none" stroke="rgb(0,69,134)" stroke-linejoin="round" d="M 20926,13754 L 20926,14004 21176,14004 21176,13754 20926,13754 Z"/>
 <path fill="rgb(0,69,134)" stroke="none" d="M 21469,13760 L 21469,14010 21719,14010 21719,13760 21469,13760 Z"/>
 <path fill="none" stroke="rgb(0,69,134)" stroke-linejoin="round" d="M 21469,13760 L 21469,14010 21719,14010 21719,13760 21469,13760 Z"/>
 <path fill="rgb(0,69,134)" stroke="none" d="M 22013,13749 L 22013,13999 22263,13999 22263,13749 22013,13749 Z"/>
 <path fill="none" stroke="rgb(0,69,134)" stroke-linejoin="round" d="M 22013,13749 L 22013,13999 22263,13999 22263,13749 22013,13749 Z"/>
 <path fill="rgb(0,69,134)" stroke="none" d="M 22556,13752 L 22556,14002 22806,14002 22806,13752 22556,13752 Z"/>
 <path fill="none" stroke="rgb(0,69,134)" stroke-linejoin="round" d="M 22556,13752 L 22556,14002 22806,14002 22806,13752 22556,13752 Z"/>
 <path fill="rgb(0,69,134)" stroke="none" d="M 23099,13746 L 23099,13996 23349,13996 23349,13746 23099,13746 Z"/>
 <path fill="none" stroke="rgb(0,69,134)" stroke-linejoin="round" d="M 23099,13746 L 23099,13996 23349,13996 23349,13746 23099,13746 Z"/>
 <path fill="rgb(0,69,134)" stroke="none" d="M 23642,13746 L 23642,13996 23892,13996 23892,13746 23642,13746 Z"/>
 <path fill="none" stroke="rgb(0,69,134)" stroke-linejoin="round" d="M 23642,13746 L 23642,13996 23892,13996 23892,13746 23642,13746 Z"/>
 <path fill="rgb(0,69,134)" stroke="none" d="M 24186,13744 L 24186,13994 24436,13994 24436,13744 24186,13744 Z"/>
 <path fill="none" stroke="rgb(0,69,134)" stroke-linejoin="round" d="M 24186,13744 L 24186,13994 24436,13994 24436,13744 24186,13744 Z"/>
 <path fill="none" stroke="rgb(255,66,14)" stroke-width="80" stroke-linejoin="round" d="M 2582,13882 L 2609,13882 2636,13882 2663,13883 2690,13883 2717,13883 2744,13883 2772,13883 2799,13883 2826,13883 2853,13884 2880,13884 2907,13884 2935,13884 2962,13883 2989,13883 3016,13883 3043,13883 3070,13883 3098,13882 3125,13882 3152,13881 3179,13881 3206,13880 3233,13880 3261,13879 3288,13878 3315,13878 3342,13877 3369,13877 3396,13876 3424,13875 3451,13875 3478,13875 3505,13874 3532,13874 3559,13874 3587,13874 3614,13873 3641,13874 3668,13874 3695,13874 3722,13875 3749,13875 3777,13876 3804,13877 3831,13878 3858,13879 3885,13880 3912,13881 3940,13882 3967,13883 3994,13884 4021,13885 4048,13886 4075,13887 4103,13887 4130,13888 4157,13889 4184,13889 4211,13890 4238,13890 4266,13890 4293,13891 4320,13890 4347,13890 4374,13890 4401,13890 4429,13889 4456,13889 4483,13888 4510,13888 4537,13887 4564,13886 4592,13885 4619,13884 4646,13883 4673,13882 4700,13881 4727,13880 4755,13879 4782,13878 4809,13877 4836,13876 4863,13875 4890,13874 4917,13873 4945,13872 4972,13871 4999,13870 5026,13869 5053,13868 5080,13867 5108,13866 5135,13865 5162,13864 5189,13863 5216,13862 5243,13862 5271,13861 5298,13860 5325,13860 5352,13859 5379,13859 5406,13859 5434,13858 5461,13858 5488,13858 5515,13858 5542,13858 5569,13858 5597,13858 5624,13858 5651,13858 5678,13859 5705,13859 5732,13860 5760,13861 5787,13861 5814,13862 5841,13863 5868,13864 5895,13865 5922,13867 5950,13868 5977,13869 6004,13871 6031,13872 6058,13873 6085,13875 6113,13876 6140,13877 6167,13878 6194,13879 6221,13880 6248,13881 6276,13881 6303,13882 6330,13882 6357,13882 6384,13882 6411,13881 6439,13881 6466,13880 6493,13879 6520,13878 6547,13876 6574,13874 6602,13872 6629,13870 6656,13867 6683,13865 6710,13862 6737,13859 6765,13855 6792,13852 6819,13848 6846,13844 6873,13840 6900,13836 6928,13831 6955,13826 6982,13821 7009,13816 7036,13811 7063,13807 7090,13802 7118,13798 7145,13794 7172,13790 7199,13787 7226,13784 7253,13783 7281,13782 7308,13781 7335,13782 7362,13784 7389,13786 7416,13790 7444,13795 7471,13802 7498,13809 7525,13818 7552,13827 7579,13836 7607,13846 7634,13854 7661,13862 7688,13868 7715,13873 7742,13875 7770,13875 7797,13872 7824,13866 7851,13856 7878,13841 7905,13822 7933,13799 7960,13770 7987,13735 8014,13694 8041,13647 8068,13594 8095,13536 8123,13473 8150,13406 8177,13336 8204,13262 8231,13187 8258,13109 8286,13031 8313,12952 8340,12873 8367,12795 8394,12718 8421,12644 8449,12571 8476,12502 8503,12437 8530,12376 8557,12319 8584,12269 8612,12223 8639,12183 8666,12147 8693,12116 8720,12090 8747,12068 8775,12050 8802,12036 8829,12025 8856,12018 8883,12014 8910,12014 8938,12016 8965,12020 8992,12027 9019,12037 9046,12048 9073,12061 9101,12076 9128,12092 9155,12109 9182,12127 9209,12147 9236,12167 9263,12188 9291,12209 9318,12231 9345,12254 9372,12276 9399,12299 9426,12322 9454,12345 9481,12367 9508,12389 9535,12410 9562,12431 9589,12451 9617,12470 9644,12488 9671,12505 9698,12521 9725,12535 9752,12547 9780,12557 9807,12565 9834,12571 9861,12574 9888,12575 9915,12572 9943,12567 9970,12558 9997,12545 10024,12529 10051,12509 10078,12484 10106,12455 10133,12422 10160,12384 10187,12341 10214,12293 10241,12240 10268,12184 10296,12125 10323,12064 10350,12001 10377,11938 10404,11874 10431,11812 10459,11750 10486,11692 10513,11636 10540,11584 10567,11536 10594,11494 10622,11458 10649,11428 10676,11406 10703,11392 10730,11387 10757,11391 10785,11405 10812,11426 10839,11455 10866,11490 10893,11531 10920,11576 10948,11626 10975,11679 11002,11735 11029,11792 11056,11849 11083,11907 11111,11964 11138,12020 11165,12073 11192,12122 11219,12168 11246,12209 11274,12244 11301,12273 11328,12297 11355,12314 11382,12327 11409,12335 11436,12339 11464,12339 11491,12337 11518,12332 11545,12324 11572,12316 11599,12306 11627,12295 11654,12284 11681,12274 11708,12265 11735,12256 11762,12250 11790,12246 11817,12244 11844,12246 11871,12251 11898,12258 11925,12268 11953,12281 11980,12295 12007,12311 12034,12328 12061,12347 12088,12366 12116,12386 12143,12407 12170,12428 12197,12448 12224,12468 12251,12488 12279,12507 12306,12524 12333,12541 12360,12555 12387,12568 12414,12579 12441,12588 12469,12595 12496,12601 12523,12605 12550,12607 12577,12608 12604,12607 12632,12605 12659,12601 12686,12596 12713,12589 12740,12581 12767,12572 12795,12562 12822,12551 12849,12538 12876,12524 12903,12510 12930,12494 12958,12478 12985,12461 13012,12443 13039,12425 13066,12406 13093,12388 13121,12369 13148,12351 13175,12332 13202,12314 13229,12297 13256,12280 13284,12264 13311,12249 13338,12234 13365,12222 13392,12210 13419,12200 13447,12191 13474,12184 13501,12178 13528,12174 13555,12172 13582,12171 13609,12172 13637,12173 13664,12176 13691,12180 13718,12185 13745,12191 13772,12198 13800,12206 13827,12215 13854,12224 13881,12234 13908,12245 13934,12256 13962,12267 13989,12279 14016,12291 14043,12304 14070,12317 14097,12329 14125,12342 14152,12354 14179,12367 14206,12379 14233,12391 14260,12402 14288,12413 14315,12424 14342,12433 14369,12442 14396,12451 14423,12458 14451,12465 14478,12470 14505,12474 14532,12478 14559,12480 14586,12480 14613,12480 14641,12478 14668,12474 14695,12470 14722,12464 14749,12457 14776,12448 14804,12438 14831,12426 14858,12413 14885,12399 14912,12383 14939,12365 14967,12346 14994,12326 15021,12304 15048,12280 15075,12255 15102,12228 15130,12200 15157,12170 15184,12138 15211,12104 15238,12069 15265,12031 15293,11992 15320,11951 15347,11907 15374,11862 15401,11814 15428,11764 15456,11713 15483,11658 15510,11602 15537,11543 15564,11482 15591,11418 15619,11352 15646,11283 15673,11213 15700,11142 15727,11072 15754,11003 15781,10936 15809,10871 15836,10812 15863,10756 15890,10707 15917,10665 15944,10631 15972,10605 15999,10589 16026,10584 16053,10590 16080,10609 16107,10641 16135,10687 16162,10749 16189,10826 16216,10917 16243,11019 16270,11129 16298,11243 16325,11360 16352,11477 16379,11590 16406,11698 16433,11797 16461,11884 16488,11957 16515,12012 16542,12048 16569,12061 16596,12049 16624,12008 16651,11937 16678,11832 16705,11690 16732,11510 16759,11295 16786,11049 16814,10777 16841,10484 16868,10173 16895,9849 16922,9516 16949,9179 16977,8842 17004,8511 17031,8188 17058,7878 17085,7585 17112,7315 17140,7071 17167,6858 17194,6681 17221,6543 17248,6449 17275,6402 17303,6400 17330,6439 17357,6517 17384,6630 17411,6774 17438,6946 17466,7143 17493,7361 17520,7597 17547,7847 17574,8108 17601,8377 17629,8650 17656,8922 17683,9193 17710,9458 17737,9714 17764,9957 17792,10184 17819,10391 17846,10581 17873,10753 17900,10909 17927,11051 17954,11179 17982,11295 18009,11399 18036,11494 18063,11581 18090,11660 18117,11733 18145,11801 18172,11865 18199,11927 18226,11987 18253,12048 18280,12110 18308,12174 18335,12242 18362,12314 18389,12391 18416,12471 18443,12555 18471,12641 18498,12729 18525,12818 18552,12907 18579,12997 18606,13086 18634,13174 18661,13260 18688,13343 18715,13424 18742,13501 18769,13574 18797,13641 18824,13704 18851,13760 18878,13810 18905,13852 18932,13888 18959,13917 18987,13940 19014,13958 19041,13971 19068,13979 19095,13983 19122,13983 19150,13980 19177,13975 19204,13967 19231,13957 19258,13946 19285,13933 19313,13921 19340,13908 19367,13896 19394,13884 19421,13874 19448,13865 19476,13858 19503,13853 19530,13849 19557,13846 19584,13845 19611,13844 19639,13845 19666,13846 19693,13848 19720,13851 19747,13854 19774,13857 19802,13861 19829,13865 19856,13869 19883,13873 19910,13876 19937,13879 19965,13882 19992,13884 20019,13886 20046,13887 20073,13888 20100,13888 20127,13888 20155,13887 20182,13886 20209,13885 20236,13884 20263,13883 20290,13881 20318,13880 20345,13878 20372,13876 20399,13874 20426,13873 20453,13871 20481,13870 20508,13869 20535,13867 20562,13867 20589,13866 20616,13865 20644,13865 20671,13865 20698,13865 20725,13865 20752,13865 20779,13865 20807,13865 20834,13866 20861,13866 20888,13866 20915,13867 20942,13867 20970,13868 20997,13868 21024,13868 21051,13869 21078,13869 21105,13869 21132,13869 21160,13869 21187,13869 21214,13869 21241,13869 21268,13869 21295,13868 21323,13868 21350,13868 21377,13868 21404,13868 21431,13868 21458,13868 21486,13868 21513,13868 21540,13868 21567,13868 21594,13869 21621,13869 21649,13869 21676,13870 21703,13870 21730,13871 21757,13871 21784,13872 21812,13872 21839,13873 21866,13874 21893,13874 21920,13875 21947,13875 21975,13876 22002,13876 22029,13876 22056,13876 22083,13877 22110,13877 22138,13877 22165,13876 22192,13876 22219,13876 22246,13875 22273,13875 22300,13874 22328,13873 22355,13872 22382,13872 22409,13871 22436,13870 22463,13870 22491,13869 22518,13868 22545,13868 22572,13867 22599,13867 22626,13866 22654,13866 22681,13866 22708,13866 22735,13866 22762,13866 22789,13866 22817,13867 22844,13867 22871,13868 22898,13868 22925,13869 22952,13870 22980,13870 23007,13871 23034,13872 23061,13873 23088,13873 23115,13874 23143,13875 23170,13875 23197,13876 23224,13877 23251,13877 23278,13877 23305,13878 23333,13878 23360,13878 23387,13878 23414,13878 23441,13878 23468,13878 23496,13878 23523,13878 23550,13878 23577,13878 23604,13878 23631,13878 23659,13878 23686,13877 23713,13877 23740,13877 23767,13877 23794,13876 23822,13876 23849,13876 23876,13876 23903,13875 23930,13875 23957,13875 23985,13874 24012,13874 24039,13874 24066,13874 24093,13873 24120,13873 24148,13873 24175,13873 24202,13872 24229,13872 24256,13872 24283,13871 24311,13871"/>
 <path fill="rgb(255,66,14)" stroke="none" d="M 2457,13882 L 2582,14007 2707,13882 2582,13757 2457,13882 Z"/>
 <path fill="none" stroke="rgb(255,66,14)" stroke-linejoin="round" d="M 2457,13882 L 2582,14007 2707,13882 2582,13757 2457,13882 Z"/>
 <path fill="rgb(255,66,14)" stroke="none" d="M 3000,13882 L 3125,14007 3250,13882 3125,13757 3000,13882 Z"/>
 <path fill="none" stroke="rgb(255,66,14)" stroke-linejoin="round" d="M 3000,13882 L 3125,14007 3250,13882 3125,13757 3000,13882 Z"/>
 <path fill="rgb(255,66,14)" stroke="none" d="M 3543,13874 L 3668,13999 3793,13874 3668,13749 3543,13874 Z"/>
 <path fill="none" stroke="rgb(255,66,14)" stroke-linejoin="round" d="M 3543,13874 L 3668,13999 3793,13874 3668,13749 3543,13874 Z"/>
 <path fill="rgb(255,66,14)" stroke="none" d="M 4086,13890 L 4211,14015 4336,13890 4211,13765 4086,13890 Z"/>
 <path fill="none" stroke="rgb(255,66,14)" stroke-linejoin="round" d="M 4086,13890 L 4211,14015 4336,13890 4211,13765 4086,13890 Z"/>
 <path fill="rgb(255,66,14)" stroke="none" d="M 4630,13879 L 4755,14004 4880,13879 4755,13754 4630,13879 Z"/>
 <path fill="none" stroke="rgb(255,66,14)" stroke-linejoin="round" d="M 4630,13879 L 4755,14004 4880,13879 4755,13754 4630,13879 Z"/>
 <path fill="rgb(255,66,14)" stroke="none" d="M 5173,13860 L 5298,13985 5423,13860 5298,13735 5173,13860 Z"/>
 <path fill="none" stroke="rgb(255,66,14)" stroke-linejoin="round" d="M 5173,13860 L 5298,13985 5423,13860 5298,13735 5173,13860 Z"/>
 <path fill="rgb(255,66,14)" stroke="none" d="M 5716,13863 L 5841,13988 5966,13863 5841,13738 5716,13863 Z"/>
 <path fill="none" stroke="rgb(255,66,14)" stroke-linejoin="round" d="M 5716,13863 L 5841,13988 5966,13863 5841,13738 5716,13863 Z"/>
 <path fill="rgb(255,66,14)" stroke="none" d="M 6259,13882 L 6384,14007 6509,13882 6384,13757 6259,13882 Z"/>
 <path fill="none" stroke="rgb(255,66,14)" stroke-linejoin="round" d="M 6259,13882 L 6384,14007 6509,13882 6384,13757 6259,13882 Z"/>
 <path fill="rgb(255,66,14)" stroke="none" d="M 6803,13831 L 6928,13956 7053,13831 6928,13706 6803,13831 Z"/>
 <path fill="none" stroke="rgb(255,66,14)" stroke-linejoin="round" d="M 6803,13831 L 6928,13956 7053,13831 6928,13706 6803,13831 Z"/>
 <path fill="rgb(255,66,14)" stroke="none" d="M 7346,13802 L 7471,13927 7596,13802 7471,13677 7346,13802 Z"/>
 <path fill="none" stroke="rgb(255,66,14)" stroke-linejoin="round" d="M 7346,13802 L 7471,13927 7596,13802 7471,13677 7346,13802 Z"/>
 <path fill="rgb(255,66,14)" stroke="none" d="M 7889,13694 L 8014,13819 8139,13694 8014,13569 7889,13694 Z"/>
 <path fill="none" stroke="rgb(255,66,14)" stroke-linejoin="round" d="M 7889,13694 L 8014,13819 8139,13694 8014,13569 7889,13694 Z"/>
 <path fill="rgb(255,66,14)" stroke="none" d="M 8432,12319 L 8557,12444 8682,12319 8557,12194 8432,12319 Z"/>
 <path fill="none" stroke="rgb(255,66,14)" stroke-linejoin="round" d="M 8432,12319 L 8557,12444 8682,12319 8557,12194 8432,12319 Z"/>
 <path fill="rgb(255,66,14)" stroke="none" d="M 8976,12076 L 9101,12201 9226,12076 9101,11951 8976,12076 Z"/>
 <path fill="none" stroke="rgb(255,66,14)" stroke-linejoin="round" d="M 8976,12076 L 9101,12201 9226,12076 9101,11951 8976,12076 Z"/>
 <path fill="rgb(255,66,14)" stroke="none" d="M 9519,12488 L 9644,12613 9769,12488 9644,12363 9519,12488 Z"/>
 <path fill="none" stroke="rgb(255,66,14)" stroke-linejoin="round" d="M 9519,12488 L 9644,12613 9769,12488 9644,12363 9519,12488 Z"/>
 <path fill="rgb(255,66,14)" stroke="none" d="M 10062,12341 L 10187,12466 10312,12341 10187,12216 10062,12341 Z"/>
 <path fill="none" stroke="rgb(255,66,14)" stroke-linejoin="round" d="M 10062,12341 L 10187,12466 10312,12341 10187,12216 10062,12341 Z"/>
 <path fill="rgb(255,66,14)" stroke="none" d="M 10605,11387 L 10730,11512 10855,11387 10730,11262 10605,11387 Z"/>
 <path fill="none" stroke="rgb(255,66,14)" stroke-linejoin="round" d="M 10605,11387 L 10730,11512 10855,11387 10730,11262 10605,11387 Z"/>
 <path fill="rgb(255,66,14)" stroke="none" d="M 11149,12244 L 11274,12369 11399,12244 11274,12119 11149,12244 Z"/>
 <path fill="none" stroke="rgb(255,66,14)" stroke-linejoin="round" d="M 11149,12244 L 11274,12369 11399,12244 11274,12119 11149,12244 Z"/>
 <path fill="rgb(255,66,14)" stroke="none" d="M 11692,12244 L 11817,12369 11942,12244 11817,12119 11692,12244 Z"/>
 <path fill="none" stroke="rgb(255,66,14)" stroke-linejoin="round" d="M 11692,12244 L 11817,12369 11942,12244 11817,12119 11692,12244 Z"/>
 <path fill="rgb(255,66,14)" stroke="none" d="M 12235,12555 L 12360,12680 12485,12555 12360,12430 12235,12555 Z"/>
 <path fill="none" stroke="rgb(255,66,14)" stroke-linejoin="round" d="M 12235,12555 L 12360,12680 12485,12555 12360,12430 12235,12555 Z"/>
 <path fill="rgb(255,66,14)" stroke="none" d="M 12778,12510 L 12903,12635 13028,12510 12903,12385 12778,12510 Z"/>
 <path fill="none" stroke="rgb(255,66,14)" stroke-linejoin="round" d="M 12778,12510 L 12903,12635 13028,12510 12903,12385 12778,12510 Z"/>
 <path fill="rgb(255,66,14)" stroke="none" d="M 13322,12191 L 13447,12316 13572,12191 13447,12066 13322,12191 Z"/>
 <path fill="none" stroke="rgb(255,66,14)" stroke-linejoin="round" d="M 13322,12191 L 13447,12316 13572,12191 13447,12066 13322,12191 Z"/>
 <path fill="rgb(255,66,14)" stroke="none" d="M 13865,12279 L 13989,12404 14114,12279 13989,12154 13865,12279 Z"/>
 <path fill="none" stroke="rgb(255,66,14)" stroke-linejoin="round" d="M 13865,12279 L 13989,12404 14114,12279 13989,12154 13865,12279 Z"/>
 <path fill="rgb(255,66,14)" stroke="none" d="M 14407,12478 L 14532,12603 14657,12478 14532,12353 14407,12478 Z"/>
 <path fill="none" stroke="rgb(255,66,14)" stroke-linejoin="round" d="M 14407,12478 L 14532,12603 14657,12478 14532,12353 14407,12478 Z"/>
 <path fill="rgb(255,66,14)" stroke="none" d="M 14950,12255 L 15075,12380 15200,12255 15075,12130 14950,12255 Z"/>
 <path fill="none" stroke="rgb(255,66,14)" stroke-linejoin="round" d="M 14950,12255 L 15075,12380 15200,12255 15075,12130 14950,12255 Z"/>
 <path fill="rgb(255,66,14)" stroke="none" d="M 15494,11352 L 15619,11477 15744,11352 15619,11227 15494,11352 Z"/>
 <path fill="none" stroke="rgb(255,66,14)" stroke-linejoin="round" d="M 15494,11352 L 15619,11477 15744,11352 15619,11227 15494,11352 Z"/>
 <path fill="rgb(255,66,14)" stroke="none" d="M 16037,10749 L 16162,10874 16287,10749 16162,10624 16037,10749 Z"/>
 <path fill="none" stroke="rgb(255,66,14)" stroke-linejoin="round" d="M 16037,10749 L 16162,10874 16287,10749 16162,10624 16037,10749 Z"/>
 <path fill="rgb(255,66,14)" stroke="none" d="M 16580,11690 L 16705,11815 16830,11690 16705,11565 16580,11690 Z"/>
 <path fill="none" stroke="rgb(255,66,14)" stroke-linejoin="round" d="M 16580,11690 L 16705,11815 16830,11690 16705,11565 16580,11690 Z"/>
 <path fill="rgb(255,66,14)" stroke="none" d="M 17123,6449 L 17248,6574 17373,6449 17248,6324 17123,6449 Z"/>
 <path fill="none" stroke="rgb(255,66,14)" stroke-linejoin="round" d="M 17123,6449 L 17248,6574 17373,6449 17248,6324 17123,6449 Z"/>
 <path fill="rgb(255,66,14)" stroke="none" d="M 17667,10184 L 17792,10309 17917,10184 17792,10059 17667,10184 Z"/>
 <path fill="none" stroke="rgb(255,66,14)" stroke-linejoin="round" d="M 17667,10184 L 17792,10309 17917,10184 17792,10059 17667,10184 Z"/>
 <path fill="rgb(255,66,14)" stroke="none" d="M 18210,12242 L 18335,12367 18460,12242 18335,12117 18210,12242 Z"/>
 <path fill="none" stroke="rgb(255,66,14)" stroke-linejoin="round" d="M 18210,12242 L 18335,12367 18460,12242 18335,12117 18210,12242 Z"/>
 <path fill="rgb(255,66,14)" stroke="none" d="M 18753,13810 L 18878,13935 19003,13810 18878,13685 18753,13810 Z"/>
 <path fill="none" stroke="rgb(255,66,14)" stroke-linejoin="round" d="M 18753,13810 L 18878,13935 19003,13810 18878,13685 18753,13810 Z"/>
 <path fill="rgb(255,66,14)" stroke="none" d="M 19296,13874 L 19421,13999 19546,13874 19421,13749 19296,13874 Z"/>
 <path fill="none" stroke="rgb(255,66,14)" stroke-linejoin="round" d="M 19296,13874 L 19421,13999 19546,13874 19421,13749 19296,13874 Z"/>
 <path fill="rgb(255,66,14)" stroke="none" d="M 19840,13882 L 19965,14007 20090,13882 19965,13757 19840,13882 Z"/>
 <path fill="none" stroke="rgb(255,66,14)" stroke-linejoin="round" d="M 19840,13882 L 19965,14007 20090,13882 19965,13757 19840,13882 Z"/>
 <path fill="rgb(255,66,14)" stroke="none" d="M 20383,13869 L 20508,13994 20633,13869 20508,13744 20383,13869 Z"/>
 <path fill="none" stroke="rgb(255,66,14)" stroke-linejoin="round" d="M 20383,13869 L 20508,13994 20633,13869 20508,13744 20383,13869 Z"/>
 <path fill="rgb(255,66,14)" stroke="none" d="M 20926,13869 L 21051,13994 21176,13869 21051,13744 20926,13869 Z"/>
 <path fill="none" stroke="rgb(255,66,14)" stroke-linejoin="round" d="M 20926,13869 L 21051,13994 21176,13869 21051,13744 20926,13869 Z"/>
 <path fill="rgb(255,66,14)" stroke="none" d="M 21469,13869 L 21594,13994 21719,13869 21594,13744 21469,13869 Z"/>
 <path fill="none" stroke="rgb(255,66,14)" stroke-linejoin="round" d="M 21469,13869 L 21594,13994 21719,13869 21594,13744 21469,13869 Z"/>
 <path fill="rgb(255,66,14)" stroke="none" d="M 22013,13877 L 22138,14002 22263,13877 22138,13752 22013,13877 Z"/>
 <path fill="none" stroke="rgb(255,66,14)" stroke-linejoin="round" d="M 22013,13877 L 22138,14002 22263,13877 22138,13752 22013,13877 Z"/>
 <path fill="rgb(255,66,14)" stroke="none" d="M 22556,13866 L 22681,13991 22806,13866 22681,13741 22556,13866 Z"/>
 <path fill="none" stroke="rgb(255,66,14)" stroke-linejoin="round" d="M 22556,13866 L 22681,13991 22806,13866 22681,13741 22556,13866 Z"/>
 <path fill="rgb(255,66,14)" stroke="none" d="M 23099,13877 L 23224,14002 23349,13877 23224,13752 23099,13877 Z"/>
 <path fill="none" stroke="rgb(255,66,14)" stroke-linejoin="round" d="M 23099,13877 L 23224,14002 23349,13877 23224,13752 23099,13877 Z"/>
 <path fill="rgb(255,66,14)" stroke="none" d="M 23642,13877 L 23767,14002 23892,13877 23767,13752 23642,13877 Z"/>
 <path fill="none" stroke="rgb(255,66,14)" stroke-linejoin="round" d="M 23642,13877 L 23767,14002 23892,13877 23767,13752 23642,13877 Z"/>
 <path fill="rgb(255,66,14)" stroke="none" d="M 24186,13871 L 24311,13996 24436,13871 24311,13746 24186,13871 Z"/>
 <path fill="none" stroke="rgb(255,66,14)" stroke-linejoin="round" d="M 24186,13871 L 24311,13996 24436,13871 24311,13746 24186,13871 Z"/>
 <path fill="none" stroke="rgb(255,211,32)" stroke-width="80" stroke-linejoin="round" d="M 2582,13871 L 2609,13871 2636,13871 2663,13871 2690,13871 2717,13871 2744,13871 2772,13870 2799,13870 2826,13870 2853,13870 2880,13870 2907,13870 2935,13870 2962,13870 2989,13870 3016,13870 3043,13871 3070,13871 3098,13871 3125,13871 3152,13871 3179,13872 3206,13872 3233,13872 3261,13873 3288,13873 3315,13874 3342,13874 3369,13874 3396,13875 3424,13875 3451,13875 3478,13876 3505,13876 3532,13876 3559,13876 3587,13876 3614,13877 3641,13877 3668,13877 3695,13876 3722,13876 3749,13876 3777,13876 3804,13876 3831,13875 3858,13875 3885,13874 3912,13874 3940,13874 3967,13873 3994,13873 4021,13873 4048,13872 4075,13872 4103,13872 4130,13871 4157,13871 4184,13871 4211,13871 4238,13871 4266,13871 4293,13872 4320,13872 4347,13872 4374,13872 4401,13873 4429,13873 4456,13873 4483,13874 4510,13874 4537,13875 4564,13875 4592,13875 4619,13876 4646,13876 4673,13876 4700,13876 4727,13876 4755,13877 4782,13877 4809,13876 4836,13876 4863,13876 4890,13876 4917,13876 4945,13875 4972,13875 4999,13875 5026,13874 5053,13874 5080,13874 5108,13873 5135,13873 5162,13872 5189,13872 5216,13872 5243,13872 5271,13871 5298,13871 5325,13871 5352,13871 5379,13871 5406,13871 5434,13871 5461,13871 5488,13871 5515,13872 5542,13872 5569,13872 5597,13873 5624,13873 5651,13873 5678,13874 5705,13874 5732,13875 5760,13875 5787,13876 5814,13876 5841,13877 5868,13877 5895,13878 5922,13878 5950,13879 5977,13879 6004,13880 6031,13880 6058,13881 6085,13881 6113,13882 6140,13882 6167,13882 6194,13883 6221,13883 6248,13884 6276,13884 6303,13884 6330,13884 6357,13884 6384,13885 6411,13885 6439,13885 6466,13885 6493,13885 6520,13884 6547,13884 6574,13884 6602,13884 6629,13884 6656,13884 6683,13883 6710,13883 6737,13883 6765,13883 6792,13883 6819,13882 6846,13882 6873,13882 6900,13882 6928,13882 6955,13882 6982,13882 7009,13882 7036,13882 7063,13882 7090,13881 7118,13881 7145,13881 7172,13880 7199,13879 7226,13878 7253,13877 7281,13876 7308,13874 7335,13872 7362,13870 7389,13867 7416,13865 7444,13861 7471,13858 7498,13854 7525,13849 7552,13845 7579,13840 7607,13835 7634,13830 7661,13824 7688,13819 7715,13814 7742,13809 7770,13804 7797,13799 7824,13795 7851,13791 7878,13787 7905,13784 7933,13782 7960,13779 7987,13778 8014,13777 8041,13777 8068,13778 8095,13779 8123,13781 8150,13784 8177,13787 8204,13790 8231,13794 8258,13797 8286,13801 8313,13806 8340,13810 8367,13814 8394,13818 8421,13822 8449,13826 8476,13830 8503,13833 8530,13836 8557,13839 8584,13841 8612,13843 8639,13844 8666,13845 8693,13845 8720,13845 8747,13845 8775,13844 8802,13844 8829,13842 8856,13841 8883,13840 8910,13838 8938,13836 8965,13834 8992,13832 9019,13830 9046,13827 9073,13825 9101,13823 9128,13821 9155,13819 9182,13816 9209,13814 9236,13813 9263,13811 9291,13809 9318,13808 9345,13806 9372,13805 9399,13804 9426,13803 9454,13803 9481,13802 9508,13802 9535,13803 9562,13803 9589,13804 9617,13805 9644,13807 9671,13809 9698,13811 9725,13813 9752,13815 9780,13816 9807,13817 9834,13817 9861,13816 9888,13814 9915,13811 9943,13806 9970,13799 9997,13791 10024,13780 10051,13767 10078,13752 10106,13734 10133,13713 10160,13689 10187,13662 10214,13632 10241,13598 10268,13562 10296,13524 10323,13483 10350,13442 10377,13399 10404,13355 10431,13311 10459,13266 10486,13222 10513,13179 10540,13137 10567,13096 10594,13057 10622,13021 10649,12987 10676,12956 10703,12928 10730,12904 10757,12884 10785,12867 10812,12853 10839,12842 10866,12833 10893,12826 10920,12820 10948,12814 10975,12808 11002,12802 11029,12795 11056,12786 11083,12776 11111,12762 11138,12746 11165,12727 11192,12703 11219,12675 11246,12642 11274,12604 11301,12559 11328,12509 11355,12455 11382,12396 11409,12333 11436,12268 11464,12200 11491,12130 11518,12059 11545,11987 11572,11915 11599,11844 11627,11774 11654,11705 11681,11639 11708,11576 11735,11516 11762,11460 11790,11409 11817,11363 11844,11323 11871,11288 11898,11259 11925,11235 11953,11217 11980,11203 12007,11194 12034,11190 12061,11190 12088,11195 12116,11203 12143,11216 12170,11232 12197,11252 12224,11275 12251,11301 12279,11331 12306,11363 12333,11398 12360,11435 12387,11475 12414,11516 12441,11560 12469,11605 12496,11652 12523,11699 12550,11747 12577,11796 12604,11845 12632,11894 12659,11943 12686,11991 12713,12038 12740,12085 12767,12130 12795,12174 12822,12215 12849,12255 12876,12293 12903,12328 12930,12360 12958,12389 12985,12416 13012,12440 13039,12461 13066,12480 13093,12496 13121,12510 13148,12522 13175,12531 13202,12537 13229,12542 13256,12544 13284,12545 13311,12543 13338,12539 13365,12533 13392,12525 13419,12516 13447,12504 13474,12491 13501,12476 13528,12461 13555,12443 13582,12426 13609,12407 13637,12389 13664,12370 13691,12351 13718,12333 13745,12315 13772,12299 13800,12283 13827,12269 13854,12256 13881,12245 13908,12237 13934,12230 13962,12227 13989,12226 14016,12228 14043,12232 14070,12240 14097,12250 14125,12262 14152,12275 14179,12291 14206,12307 14233,12325 14260,12344 14288,12364 14315,12384 14342,12404 14369,12424 14396,12444 14423,12463 14451,12482 14478,12500 14505,12516 14532,12531 14559,12545 14586,12556 14613,12567 14641,12575 14668,12582 14695,12588 14722,12592 14749,12594 14776,12596 14804,12595 14831,12594 14858,12591 14885,12587 14912,12582 14939,12575 14967,12568 14994,12559 15021,12549 15048,12538 15075,12526 15102,12513 15130,12499 15157,12484 15184,12469 15211,12454 15238,12438 15265,12422 15293,12406 15320,12390 15347,12374 15374,12359 15401,12344 15428,12330 15456,12317 15483,12305 15510,12294 15537,12284 15564,12275 15591,12268 15619,12263 15646,12260 15673,12258 15700,12258 15727,12259 15754,12262 15781,12266 15809,12271 15836,12277 15863,12284 15890,12293 15917,12301 15944,12311 15972,12321 15999,12331 16026,12342 16053,12353 16080,12364 16107,12375 16135,12386 16162,12397 16189,12408 16216,12418 16243,12428 16270,12437 16298,12447 16325,12456 16352,12464 16379,12473 16406,12480 16433,12488 16461,12495 16488,12502 16515,12509 16542,12515 16569,12521 16596,12526 16624,12531 16651,12536 16678,12541 16705,12545 16732,12548 16759,12551 16786,12553 16814,12554 16841,12553 16868,12551 16895,12547 16922,12540 16949,12531 16977,12520 17004,12505 17031,12487 17058,12466 17085,12440 17112,12411 17140,12377 17167,12339 17194,12296 17221,12247 17248,12194 17275,12134 17303,12070 17330,12002 17357,11931 17384,11857 17411,11782 17438,11706 17466,11630 17493,11554 17520,11481 17547,11409 17574,11341 17601,11277 17629,11218 17656,11164 17683,11117 17710,11077 17737,11045 17764,11022 17792,11009 17819,11006 17846,11012 17873,11028 17900,11051 17927,11081 17954,11118 17982,11161 18009,11207 18036,11258 18063,11312 18090,11368 18117,11426 18145,11484 18172,11541 18199,11598 18226,11652 18253,11704 18280,11752 18308,11796 18335,11834 18362,11867 18389,11894 18416,11915 18443,11931 18471,11943 18498,11950 18525,11953 18552,11952 18579,11948 18606,11940 18634,11930 18661,11918 18688,11903 18715,11886 18742,11868 18769,11849 18797,11829 18824,11808 18851,11788 18878,11767 18905,11747 18932,11728 18959,11709 18987,11692 19014,11675 19041,11659 19068,11644 19095,11631 19122,11619 19150,11608 19177,11599 19204,11591 19231,11586 19258,11582 19285,11580 19313,11580 19340,11583 19367,11587 19394,11594 19421,11604 19448,11616 19476,11630 19503,11646 19530,11663 19557,11681 19584,11700 19611,11718 19639,11736 19666,11753 19693,11768 19720,11782 19747,11793 19774,11801 19802,11807 19829,11808 19856,11806 19883,11799 19910,11787 19937,11769 19965,11746 19992,11716 20019,11681 20046,11642 20073,11598 20100,11552 20127,11503 20155,11452 20182,11401 20209,11351 20236,11301 20263,11253 20290,11208 20318,11166 20345,11128 20372,11096 20399,11069 20426,11049 20453,11037 20481,11033 20508,11038 20535,11053 20562,11078 20589,11111 20616,11152 20644,11202 20671,11258 20698,11321 20725,11389 20752,11464 20779,11543 20807,11626 20834,11713 20861,11802 20888,11895 20915,11989 20942,12085 20970,12181 20997,12278 21024,12374 21051,12470 21078,12563 21105,12656 21132,12746 21160,12834 21187,12920 21214,13004 21241,13085 21268,13164 21295,13239 21323,13312 21350,13381 21377,13448 21404,13510 21431,13569 21458,13624 21486,13675 21513,13722 21540,13765 21567,13803 21594,13836 21621,13865 21649,13889 21676,13909 21703,13925 21730,13937 21757,13946 21784,13952 21812,13955 21839,13955 21866,13954 21893,13950 21920,13945 21947,13939 21975,13931 22002,13923 22029,13915 22056,13906 22083,13897 22110,13889 22138,13882 22165,13876 22192,13870 22219,13866 22246,13862 22273,13859 22300,13857 22328,13856 22355,13855 22382,13855 22409,13855 22436,13856 22463,13857 22491,13858 22518,13860 22545,13862 22572,13864 22599,13866 22626,13868 22654,13869 22681,13871 22708,13873 22735,13874 22762,13875 22789,13877 22817,13877 22844,13878 22871,13879 22898,13880 22925,13880 22952,13880 22980,13881 23007,13881 23034,13881 23061,13881 23088,13881 23115,13882 23143,13882 23170,13882 23197,13882 23224,13882 23251,13882 23278,13882 23305,13882 23333,13883 23360,13883 23387,13883 23414,13883 23441,13883 23468,13884 23496,13884 23523,13884 23550,13884 23577,13884 23604,13885 23631,13885 23659,13885 23686,13885 23713,13885 23740,13885 23767,13885 23794,13884 23822,13884 23849,13884 23876,13884 23903,13883 23930,13883 23957,13882 23985,13882 24012,13881 24039,13881 24066,13880 24093,13879 24120,13879 24148,13878 24175,13877 24202,13877 24229,13876 24256,13875 24283,13875 24311,13874"/>
 <path fill="rgb(255,211,32)" stroke="none" d="M 2457,13746 L 2582,13996 2707,13746 2457,13746 Z"/>
 <path fill="none" stroke="rgb(255,211,32)" stroke-linejoin="round" d="M 2457,13746 L 2582,13996 2707,13746 2457,13746 Z"/>
 <path fill="rgb(255,211,32)" stroke="none" d="M 3000,13746 L 3125,13996 3250,13746 3000,13746 Z"/>
 <path fill="none" stroke="rgb(255,211,32)" stroke-linejoin="round" d="M 3000,13746 L 3125,13996 3250,13746 3000,13746 Z"/>
 <path fill="rgb(255,211,32)" stroke="none" d="M 3543,13752 L 3668,14002 3793,13752 3543,13752 Z"/>
 <path fill="none" stroke="rgb(255,211,32)" stroke-linejoin="round" d="M 3543,13752 L 3668,14002 3793,13752 3543,13752 Z"/>
 <path fill="rgb(255,211,32)" stroke="none" d="M 4086,13746 L 4211,13996 4336,13746 4086,13746 Z"/>
 <path fill="none" stroke="rgb(255,211,32)" stroke-linejoin="round" d="M 4086,13746 L 4211,13996 4336,13746 4086,13746 Z"/>
 <path fill="rgb(255,211,32)" stroke="none" d="M 4630,13752 L 4755,14002 4880,13752 4630,13752 Z"/>
 <path fill="none" stroke="rgb(255,211,32)" stroke-linejoin="round" d="M 4630,13752 L 4755,14002 4880,13752 4630,13752 Z"/>
 <path fill="rgb(255,211,32)" stroke="none" d="M 5173,13746 L 5298,13996 5423,13746 5173,13746 Z"/>
 <path fill="none" stroke="rgb(255,211,32)" stroke-linejoin="round" d="M 5173,13746 L 5298,13996 5423,13746 5173,13746 Z"/>
 <path fill="rgb(255,211,32)" stroke="none" d="M 5716,13752 L 5841,14002 5966,13752 5716,13752 Z"/>
 <path fill="none" stroke="rgb(255,211,32)" stroke-linejoin="round" d="M 5716,13752 L 5841,14002 5966,13752 5716,13752 Z"/>
 <path fill="rgb(255,211,32)" stroke="none" d="M 6259,13760 L 6384,14010 6509,13760 6259,13760 Z"/>
 <path fill="none" stroke="rgb(255,211,32)" stroke-linejoin="round" d="M 6259,13760 L 6384,14010 6509,13760 6259,13760 Z"/>
 <path fill="rgb(255,211,32)" stroke="none" d="M 6803,13757 L 6928,14007 7053,13757 6803,13757 Z"/>
 <path fill="none" stroke="rgb(255,211,32)" stroke-linejoin="round" d="M 6803,13757 L 6928,14007 7053,13757 6803,13757 Z"/>
 <path fill="rgb(255,211,32)" stroke="none" d="M 7346,13733 L 7471,13983 7596,13733 7346,13733 Z"/>
 <path fill="none" stroke="rgb(255,211,32)" stroke-linejoin="round" d="M 7346,13733 L 7471,13983 7596,13733 7346,13733 Z"/>
 <path fill="rgb(255,211,32)" stroke="none" d="M 7889,13652 L 8014,13902 8139,13652 7889,13652 Z"/>
 <path fill="none" stroke="rgb(255,211,32)" stroke-linejoin="round" d="M 7889,13652 L 8014,13902 8139,13652 7889,13652 Z"/>
 <path fill="rgb(255,211,32)" stroke="none" d="M 8432,13714 L 8557,13964 8682,13714 8432,13714 Z"/>
 <path fill="none" stroke="rgb(255,211,32)" stroke-linejoin="round" d="M 8432,13714 L 8557,13964 8682,13714 8432,13714 Z"/>
 <path fill="rgb(255,211,32)" stroke="none" d="M 8976,13698 L 9101,13948 9226,13698 8976,13698 Z"/>
 <path fill="none" stroke="rgb(255,211,32)" stroke-linejoin="round" d="M 8976,13698 L 9101,13948 9226,13698 8976,13698 Z"/>
 <path fill="rgb(255,211,32)" stroke="none" d="M 9519,13682 L 9644,13932 9769,13682 9519,13682 Z"/>
 <path fill="none" stroke="rgb(255,211,32)" stroke-linejoin="round" d="M 9519,13682 L 9644,13932 9769,13682 9519,13682 Z"/>
 <path fill="rgb(255,211,32)" stroke="none" d="M 10062,13537 L 10187,13787 10312,13537 10062,13537 Z"/>
 <path fill="none" stroke="rgb(255,211,32)" stroke-linejoin="round" d="M 10062,13537 L 10187,13787 10312,13537 10062,13537 Z"/>
 <path fill="rgb(255,211,32)" stroke="none" d="M 10605,12779 L 10730,13029 10855,12779 10605,12779 Z"/>
 <path fill="none" stroke="rgb(255,211,32)" stroke-linejoin="round" d="M 10605,12779 L 10730,13029 10855,12779 10605,12779 Z"/>
 <path fill="rgb(255,211,32)" stroke="none" d="M 11149,12479 L 11274,12729 11399,12479 11149,12479 Z"/>
 <path fill="none" stroke="rgb(255,211,32)" stroke-linejoin="round" d="M 11149,12479 L 11274,12729 11399,12479 11149,12479 Z"/>
 <path fill="rgb(255,211,32)" stroke="none" d="M 11692,11238 L 11817,11488 11942,11238 11692,11238 Z"/>
 <path fill="none" stroke="rgb(255,211,32)" stroke-linejoin="round" d="M 11692,11238 L 11817,11488 11942,11238 11692,11238 Z"/>
 <path fill="rgb(255,211,32)" stroke="none" d="M 12235,11310 L 12360,11560 12485,11310 12235,11310 Z"/>
 <path fill="none" stroke="rgb(255,211,32)" stroke-linejoin="round" d="M 12235,11310 L 12360,11560 12485,11310 12235,11310 Z"/>
 <path fill="rgb(255,211,32)" stroke="none" d="M 12778,12203 L 12903,12453 13028,12203 12778,12203 Z"/>
 <path fill="none" stroke="rgb(255,211,32)" stroke-linejoin="round" d="M 12778,12203 L 12903,12453 13028,12203 12778,12203 Z"/>
 <path fill="rgb(255,211,32)" stroke="none" d="M 13322,12379 L 13447,12629 13572,12379 13322,12379 Z"/>
 <path fill="none" stroke="rgb(255,211,32)" stroke-linejoin="round" d="M 13322,12379 L 13447,12629 13572,12379 13322,12379 Z"/>
 <path fill="rgb(255,211,32)" stroke="none" d="M 13865,12101 L 13989,12351 14114,12101 13865,12101 Z"/>
 <path fill="none" stroke="rgb(255,211,32)" stroke-linejoin="round" d="M 13865,12101 L 13989,12351 14114,12101 13865,12101 Z"/>
 <path fill="rgb(255,211,32)" stroke="none" d="M 14407,12406 L 14532,12656 14657,12406 14407,12406 Z"/>
 <path fill="none" stroke="rgb(255,211,32)" stroke-linejoin="round" d="M 14407,12406 L 14532,12656 14657,12406 14407,12406 Z"/>
 <path fill="rgb(255,211,32)" stroke="none" d="M 14950,12401 L 15075,12651 15200,12401 14950,12401 Z"/>
 <path fill="none" stroke="rgb(255,211,32)" stroke-linejoin="round" d="M 14950,12401 L 15075,12651 15200,12401 14950,12401 Z"/>
 <path fill="rgb(255,211,32)" stroke="none" d="M 15494,12138 L 15619,12388 15744,12138 15494,12138 Z"/>
 <path fill="none" stroke="rgb(255,211,32)" stroke-linejoin="round" d="M 15494,12138 L 15619,12388 15744,12138 15494,12138 Z"/>
 <path fill="rgb(255,211,32)" stroke="none" d="M 16037,12272 L 16162,12522 16287,12272 16037,12272 Z"/>
 <path fill="none" stroke="rgb(255,211,32)" stroke-linejoin="round" d="M 16037,12272 L 16162,12522 16287,12272 16037,12272 Z"/>
 <path fill="rgb(255,211,32)" stroke="none" d="M 16580,12420 L 16705,12670 16830,12420 16580,12420 Z"/>
 <path fill="none" stroke="rgb(255,211,32)" stroke-linejoin="round" d="M 16580,12420 L 16705,12670 16830,12420 16580,12420 Z"/>
 <path fill="rgb(255,211,32)" stroke="none" d="M 17123,12069 L 17248,12319 17373,12069 17123,12069 Z"/>
 <path fill="none" stroke="rgb(255,211,32)" stroke-linejoin="round" d="M 17123,12069 L 17248,12319 17373,12069 17123,12069 Z"/>
 <path fill="rgb(255,211,32)" stroke="none" d="M 17667,10884 L 17792,11134 17917,10884 17667,10884 Z"/>
 <path fill="none" stroke="rgb(255,211,32)" stroke-linejoin="round" d="M 17667,10884 L 17792,11134 17917,10884 17667,10884 Z"/>
 <path fill="rgb(255,211,32)" stroke="none" d="M 18210,11709 L 18335,11959 18460,11709 18210,11709 Z"/>
 <path fill="none" stroke="rgb(255,211,32)" stroke-linejoin="round" d="M 18210,11709 L 18335,11959 18460,11709 18210,11709 Z"/>
 <path fill="rgb(255,211,32)" stroke="none" d="M 18753,11642 L 18878,11892 19003,11642 18753,11642 Z"/>
 <path fill="none" stroke="rgb(255,211,32)" stroke-linejoin="round" d="M 18753,11642 L 18878,11892 19003,11642 18753,11642 Z"/>
 <path fill="rgb(255,211,32)" stroke="none" d="M 19296,11479 L 19421,11729 19546,11479 19296,11479 Z"/>
 <path fill="none" stroke="rgb(255,211,32)" stroke-linejoin="round" d="M 19296,11479 L 19421,11729 19546,11479 19296,11479 Z"/>
 <path fill="rgb(255,211,32)" stroke="none" d="M 19840,11621 L 19965,11871 20090,11621 19840,11621 Z"/>
 <path fill="none" stroke="rgb(255,211,32)" stroke-linejoin="round" d="M 19840,11621 L 19965,11871 20090,11621 19840,11621 Z"/>
 <path fill="rgb(255,211,32)" stroke="none" d="M 20383,10913 L 20508,11163 20633,10913 20383,10913 Z"/>
 <path fill="none" stroke="rgb(255,211,32)" stroke-linejoin="round" d="M 20383,10913 L 20508,11163 20633,10913 20383,10913 Z"/>
 <path fill="rgb(255,211,32)" stroke="none" d="M 20926,12345 L 21051,12595 21176,12345 20926,12345 Z"/>
 <path fill="none" stroke="rgb(255,211,32)" stroke-linejoin="round" d="M 20926,12345 L 21051,12595 21176,12345 20926,12345 Z"/>
 <path fill="rgb(255,211,32)" stroke="none" d="M 21469,13711 L 21594,13961 21719,13711 21469,13711 Z"/>
 <path fill="none" stroke="rgb(255,211,32)" stroke-linejoin="round" d="M 21469,13711 L 21594,13961 21719,13711 21469,13711 Z"/>
 <path fill="rgb(255,211,32)" stroke="none" d="M 22013,13757 L 22138,14007 22263,13757 22013,13757 Z"/>
 <path fill="none" stroke="rgb(255,211,32)" stroke-linejoin="round" d="M 22013,13757 L 22138,14007 22263,13757 22013,13757 Z"/>
 <path fill="rgb(255,211,32)" stroke="none" d="M 22556,13746 L 22681,13996 22806,13746 22556,13746 Z"/>
 <path fill="none" stroke="rgb(255,211,32)" stroke-linejoin="round" d="M 22556,13746 L 22681,13996 22806,13746 22556,13746 Z"/>
 <path fill="rgb(255,211,32)" stroke="none" d="M 23099,13757 L 23224,14007 23349,13757 23099,13757 Z"/>
 <path fill="none" stroke="rgb(255,211,32)" stroke-linejoin="round" d="M 23099,13757 L 23224,14007 23349,13757 23099,13757 Z"/>
 <path fill="rgb(255,211,32)" stroke="none" d="M 23642,13760 L 23767,14010 23892,13760 23642,13760 Z"/>
 <path fill="none" stroke="rgb(255,211,32)" stroke-linejoin="round" d="M 23642,13760 L 23767,14010 23892,13760 23642,13760 Z"/>
 <path fill="rgb(255,211,32)" stroke="none" d="M 24186,13749 L 24311,13999 24436,13749 24186,13749 Z"/>
 <path fill="none" stroke="rgb(255,211,32)" stroke-linejoin="round" d="M 24186,13749 L 24311,13999 24436,13749 24186,13749 Z"/>
 <text class="TextShape"><tspan class="TextParagraph" font-family="Liberation Sans, sans-serif" font-size="353px" font-weight="400"><tspan class="TextPosition" x="2242" y="16172"/><tspan class="TextPosition" x="2242" y="16172"><tspan fill="rgb(0,0,0)" stroke="none">0.00</tspan></tspan></tspan></text>
 <text class="TextShape"><tspan class="TextParagraph" font-family="Liberation Sans, sans-serif" font-size="353px" font-weight="400"><tspan class="TextPosition" x="2785" y="15777"/><tspan class="TextPosition" x="2785" y="15777"><tspan fill="rgb(0,0,0)" stroke="none">0.05</tspan></tspan></tspan></text>
 <text class="TextShape"><tspan class="TextParagraph" font-family="Liberation Sans, sans-serif" font-size="353px" font-weight="400"><tspan class="TextPosition" x="3328" y="16172"/><tspan class="TextPosition" x="3328" y="16172"><tspan fill="rgb(0,0,0)" stroke="none">0.10</tspan></tspan></tspan></text>
 <text class="TextShape"><tspan class="TextParagraph" font-family="Liberation Sans, sans-serif" font-size="353px" font-weight="400"><tspan class="TextPosition" x="3871" y="15777"/><tspan class="TextPosition" x="3871" y="15777"><tspan fill="rgb(0,0,0)" stroke="none">0.15</tspan></tspan></tspan></text>
 <text class="TextShape"><tspan class="TextParagraph" font-family="Liberation Sans, sans-serif" font-size="353px" font-weight="400"><tspan class="TextPosition" x="4415" y="16172"/><tspan class="TextPosition" x="4415" y="16172"><tspan fill="rgb(0,0,0)" stroke="none">0.20</tspan></tspan></tspan></text>
 <text class="TextShape"><tspan class="TextParagraph" font-family="Liberation Sans, sans-serif" font-size="353px" font-weight="400"><tspan class="TextPosition" x="4958" y="15777"/><tspan class="TextPosition" x="4958" y="15777"><tspan fill="rgb(0,0,0)" stroke="none">0.25</tspan></tspan></tspan></text>
 <text class="TextShape"><tspan class="TextParagraph" font-family="Liberation Sans, sans-serif" font-size="353px" font-weight="400"><tspan class="TextPosition" x="5501" y="16172"/><tspan class="TextPosition" x="5501" y="16172"><tspan fill="rgb(0,0,0)" stroke="none">0.30</tspan></tspan></tspan></text>
 <text class="TextShape"><tspan class="TextParagraph" font-family="Liberation Sans, sans-serif" font-size="353px" font-weight="400"><tspan class="TextPosition" x="6044" y="15777"/><tspan class="TextPosition" x="6044" y="15777"><tspan fill="rgb(0,0,0)" stroke="none">0.35</tspan></tspan></tspan></text>
 <text class="TextShape"><tspan class="TextParagraph" font-family="Liberation Sans, sans-serif" font-size="353px" font-weight="400"><tspan class="TextPosition" x="6588" y="16172"/><tspan class="TextPosition" x="6588" y="16172"><tspan fill="rgb(0,0,0)" stroke="none">0.40</tspan></tspan></tspan></text>
 <text class="TextShape"><tspan class="TextParagraph" font-family="Liberation Sans, sans-serif" font-size="353px" font-weight="400"><tspan class="TextPosition" x="7131" y="15777"/><tspan class="TextPosition" x="7131" y="15777"><tspan fill="rgb(0,0,0)" stroke="none">0.45</tspan></tspan></tspan></text>
 <text class="TextShape"><tspan class="TextParagraph" font-family="Liberation Sans, sans-serif" font-size="353px" font-weight="400"><tspan class="TextPosition" x="7674" y="16172"/><tspan class="TextPosition" x="7674" y="16172"><tspan fill="rgb(0,0,0)" stroke="none">0.50</tspan></tspan></tspan></text>
 <text class="TextShape"><tspan class="TextParagraph" font-family="Liberation Sans, sans-serif" font-size="353px" font-weight="400"><tspan class="TextPosition" x="8217" y="15777"/><tspan class="TextPosition" x="8217" y="15777"><tspan fill="rgb(0,0,0)" stroke="none">0.55</tspan></tspan></tspan></text>
 <text class="TextShape"><tspan class="TextParagraph" font-family="Liberation Sans, sans-serif" font-size="353px" font-weight="400"><tspan class="TextPosition" x="8761" y="16172"/><tspan class="TextPosition" x="8761" y="16172"><tspan fill="rgb(0,0,0)" stroke="none">0.60</tspan></tspan></tspan></text>
 <text class="TextShape"><tspan class="TextParagraph" font-family="Liberation Sans, sans-serif" font-size="353px" font-weight="400"><tspan class="TextPosition" x="9304" y="15777"/><tspan class="TextPosition" x="9304" y="15777"><tspan fill="rgb(0,0,0)" stroke="none">0.65</tspan></tspan></tspan></text>
 <text class="TextShape"><tspan class="TextParagraph" font-family="Liberation Sans, sans-serif" font-size="353px" font-weight="400"><tspan class="TextPosition" x="9847" y="16172"/><tspan class="TextPosition" x="9847" y="16172"><tspan fill="rgb(0,0,0)" stroke="none">0.70</tspan></tspan></tspan></text>
 <text class="TextShape"><tspan class="TextParagraph" font-family="Liberation Sans, sans-serif" font-size="353px" font-weight="400"><tspan class="TextPosition" x="10390" y="15777"/><tspan class="TextPosition" x="10390" y="15777"><tspan fill="rgb(0,0,0)" stroke="none">0.75</tspan></tspan></tspan></text>
 <text class="TextShape"><tspan class="TextParagraph" font-family="Liberation Sans, sans-serif" font-size="353px" font-weight="400"><tspan class="TextPosition" x="10934" y="16172"/><tspan class="TextPosition" x="10934" y="16172"><tspan fill="rgb(0,0,0)" stroke="none">0.80</tspan></tspan></tspan></text>
 <text class="TextShape"><tspan class="TextParagraph" font-family="Liberation Sans, sans-serif" font-size="353px" font-weight="400"><tspan class="TextPosition" x="11477" y="15777"/><tspan class="TextPosition" x="11477" y="15777"><tspan fill="rgb(0,0,0)" stroke="none">0.85</tspan></tspan></tspan></text>
 <text class="TextShape"><tspan class="TextParagraph" font-family="Liberation Sans, sans-serif" font-size="353px" font-weight="400"><tspan class="TextPosition" x="12020" y="16172"/><tspan class="TextPosition" x="12020" y="16172"><tspan fill="rgb(0,0,0)" stroke="none">0.90</tspan></tspan></tspan></text>
 <text class="TextShape"><tspan class="TextParagraph" font-family="Liberation Sans, sans-serif" font-size="353px" font-weight="400"><tspan class="TextPosition" x="12563" y="15777"/><tspan class="TextPosition" x="12563" y="15777"><tspan fill="rgb(0,0,0)" stroke="none">0.95</tspan></tspan></tspan></text>
 <text class="TextShape"><tspan class="TextParagraph" font-family="Liberation Sans, sans-serif" font-size="353px" font-weight="400"><tspan class="TextPosition" x="13107" y="16172"/><tspan class="TextPosition" x="13107" y="16172"><tspan fill="rgb(0,0,0)" stroke="none">1.00</tspan></tspan></tspan></text>
 <text class="TextShape"><tspan class="TextParagraph" font-family="Liberation Sans, sans-serif" font-size="353px" font-weight="400"><tspan class="TextPosition" x="13650" y="15777"/><tspan class="TextPosition" x="13650" y="15777"><tspan fill="rgb(0,0,0)" stroke="none">1.05</tspan></tspan></tspan></text>
 <text class="TextShape"><tspan class="TextParagraph" font-family="Liberation Sans, sans-serif" font-size="353px" font-weight="400"><tspan class="TextPosition" x="14193" y="16172"/><tspan class="TextPosition" x="14193" y="16172"><tspan fill="rgb(0,0,0)" stroke="none">1.10</tspan></tspan></tspan></text>
 <text class="TextShape"><tspan class="TextParagraph" font-family="Liberation Sans, sans-serif" font-size="353px" font-weight="400"><tspan class="TextPosition" x="14736" y="15777"/><tspan class="TextPosition" x="14736" y="15777"><tspan fill="rgb(0,0,0)" stroke="none">1.15</tspan></tspan></tspan></text>
 <text class="TextShape"><tspan class="TextParagraph" font-family="Liberation Sans, sans-serif" font-size="353px" font-weight="400"><tspan class="TextPosition" x="15280" y="16172"/><tspan class="TextPosition" x="15280" y="16172"><tspan fill="rgb(0,0,0)" stroke="none">1.20</tspan></tspan></tspan></text>
 <text class="TextShape"><tspan class="TextParagraph" font-family="Liberation Sans, sans-serif" font-size="353px" font-weight="400"><tspan class="TextPosition" x="15823" y="15777"/><tspan class="TextPosition" x="15823" y="15777"><tspan fill="rgb(0,0,0)" stroke="none">1.25</tspan></tspan></tspan></text>
 <text class="TextShape"><tspan class="TextParagraph" font-family="Liberation Sans, sans-serif" font-size="353px" font-weight="400"><tspan class="TextPosition" x="16366" y="16172"/><tspan class="TextPosition" x="16366" y="16172"><tspan fill="rgb(0,0,0)" stroke="none">1.30</tspan></tspan></tspan></text>
 <text class="TextShape"><tspan class="TextParagraph" font-family="Liberation Sans, sans-serif" font-size="353px" font-weight="400"><tspan class="TextPosition" x="16909" y="15777"/><tspan class="TextPosition" x="16909" y="15777"><tspan fill="rgb(0,0,0)" stroke="none">1.35</tspan></tspan></tspan></text>
 <text class="TextShape"><tspan class="TextParagraph" font-family="Liberation Sans, sans-serif" font-size="353px" font-weight="400"><tspan class="TextPosition" x="17453" y="16172"/><tspan class="TextPosition" x="17453" y="16172"><tspan fill="rgb(0,0,0)" stroke="none">1.40</tspan></tspan></tspan></text>
 <text class="TextShape"><tspan class="TextParagraph" font-family="Liberation Sans, sans-serif" font-size="353px" font-weight="400"><tspan class="TextPosition" x="17996" y="15777"/><tspan class="TextPosition" x="17996" y="15777"><tspan fill="rgb(0,0,0)" stroke="none">1.45</tspan></tspan></tspan></text>
 <text class="TextShape"><tspan class="TextParagraph" font-family="Liberation Sans, sans-serif" font-size="353px" font-weight="400"><tspan class="TextPosition" x="18539" y="16172"/><tspan class="TextPosition" x="18539" y="16172"><tspan fill="rgb(0,0,0)" stroke="none">1.50</tspan></tspan></tspan></text>
 <text class="TextShape"><tspan class="TextParagraph" font-family="Liberation Sans, sans-serif" font-size="353px" font-weight="400"><tspan class="TextPosition" x="19082" y="15777"/><tspan class="TextPosition" x="19082" y="15777"><tspan fill="rgb(0,0,0)" stroke="none">1.55</tspan></tspan></tspan></text>
 <text class="TextShape"><tspan class="TextParagraph" font-family="Liberation Sans, sans-serif" font-size="353px" font-weight="400"><tspan class="TextPosition" x="19626" y="16172"/><tspan class="TextPosition" x="19626" y="16172"><tspan fill="rgb(0,0,0)" stroke="none">1.60</tspan></tspan></tspan></text>
 <text class="TextShape"><tspan class="TextParagraph" font-family="Liberation Sans, sans-serif" font-size="353px" font-weight="400"><tspan class="TextPosition" x="20169" y="15777"/><tspan class="TextPosition" x="20169" y="15777"><tspan fill="rgb(0,0,0)" stroke="none">1.65</tspan></tspan></tspan></text>
 <text class="TextShape"><tspan class="TextParagraph" font-family="Liberation Sans, sans-serif" font-size="353px" font-weight="400"><tspan class="TextPosition" x="20712" y="16172"/><tspan class="TextPosition" x="20712" y="16172"><tspan fill="rgb(0,0,0)" stroke="none">1.70</tspan></tspan></tspan></text>
 <text class="TextShape"><tspan class="TextParagraph" font-family="Liberation Sans, sans-serif" font-size="353px" font-weight="400"><tspan class="TextPosition" x="21255" y="15777"/><tspan class="TextPosition" x="21255" y="15777"><tspan fill="rgb(0,0,0)" stroke="none">1.75</tspan></tspan></tspan></text>
 <text class="TextShape"><tspan class="TextParagraph" font-family="Liberation Sans, sans-serif" font-size="353px" font-weight="400"><tspan class="TextPosition" x="21799" y="16172"/><tspan class="TextPosition" x="21799" y="16172"><tspan fill="rgb(0,0,0)" stroke="none">1.80</tspan></tspan></tspan></text>
 <text class="TextShape"><tspan class="TextParagraph" font-family="Liberation Sans, sans-serif" font-size="353px" font-weight="400"><tspan class="TextPosition" x="22342" y="15777"/><tspan class="TextPosition" x="22342" y="15777"><tspan fill="rgb(0,0,0)" stroke="none">1.85</tspan></tspan></tspan></text>
 <text class="TextShape"><tspan class="TextParagraph" font-family="Liberation Sans, sans-serif" font-size="353px" font-weight="400"><tspan class="TextPosition" x="22885" y="16172"/><tspan class="TextPosition" x="22885" y="16172"><tspan fill="rgb(0,0,0)" stroke="none">1.90</tspan></tspan></tspan></text>
 <text class="TextShape"><tspan class="TextParagraph" font-family="Liberation Sans, sans-serif" font-size="353px" font-weight="400"><tspan class="TextPosition" x="23428" y="15777"/><tspan class="TextPosition" x="23428" y="15777"><tspan fill="rgb(0,0,0)" stroke="none">1.95</tspan></tspan></tspan></text>
 <text class="TextShape"><tspan class="TextParagraph" font-family="Liberation Sans, sans-serif" font-size="353px" font-weight="400"><tspan class="TextPosition" x="23972" y="16172"/><tspan class="TextPosition" x="23972" y="16172"><tspan fill="rgb(0,0,0)" stroke="none">2.00</tspan></tspan></tspan></text>
 <text class="TextShape"><tspan class="TextParagraph" font-family="Liberation Sans, sans-serif" font-size="353px" font-weight="400"><tspan class="TextPosition" x="1546" y="15331"/><tspan class="TextPosition" x="1546" y="15331"><tspan fill="rgb(0,0,0)" stroke="none">1500</tspan></tspan></tspan></text>
 <text class="TextShape"><tspan class="TextParagraph" font-family="Liberation Sans, sans-serif" font-size="353px" font-weight="400"><tspan class="TextPosition" x="1546" y="13991"/><tspan class="TextPosition" x="1546" y="13991"><tspan fill="rgb(0,0,0)" stroke="none">2000</tspan></tspan></tspan></text>
 <text class="TextShape"><tspan class="TextParagraph" font-family="Liberation Sans, sans-serif" font-size="353px" font-weight="400"><tspan class="TextPosition" x="1546" y="12651"/><tspan class="TextPosition" x="1546" y="12651"><tspan fill="rgb(0,0,0)" stroke="none">2500</tspan></tspan></tspan></text>
 <text class="TextShape"><tspan class="TextParagraph" font-family="Liberation Sans, sans-serif" font-size="353px" font-weight="400"><tspan class="TextPosition" x="1546" y="11311"/><tspan class="TextPosition" x="1546" y="11311"><tspan fill="rgb(0,0,0)" stroke="none">3000</tspan></tspan></tspan></text>
 <text class="TextShape"><tspan class="TextParagraph" font-family="Liberation Sans, sans-serif" font-size="353px" font-weight="400"><tspan class="TextPosition" x="1546" y="9971"/><tspan class="TextPosition" x="1546" y="9971"><tspan fill="rgb(0,0,0)" stroke="none">3500</tspan></tspan></tspan></text>
 <text class="TextShape"><tspan class="TextParagraph" font-family="Liberation Sans, sans-serif" font-size="353px" font-weight="400"><tspan class="TextPosition" x="1546" y="8631"/><tspan class="TextPosition" x="1546" y="8631"><tspan fill="rgb(0,0,0)" stroke="none">4000</tspan></tspan></tspan></text>
 <text class="TextShape"><tspan class="TextParagraph" font-family="Liberation Sans, sans-serif" font-size="353px" font-weight="400"><tspan class="TextPosition" x="1546" y="7291"/><tspan class="TextPosition" x="1546" y="7291"><tspan fill="rgb(0,0,0)" stroke="none">4500</tspan></tspan></tspan></text>
 <text class="TextShape"><tspan class="TextParagraph" font-family="Liberation Sans, sans-serif" font-size="353px" font-weight="400"><tspan class="TextPosition" x="1546" y="5951"/><tspan class="TextPosition" x="1546" y="5951"><tspan fill="rgb(0,0,0)" stroke="none">5000</tspan></tspan></tspan></text>
 <text class="TextShape"><tspan class="TextParagraph" font-family="Liberation Sans, sans-serif" font-size="353px" font-weight="400"><tspan class="TextPosition" x="1546" y="4611"/><tspan class="TextPosition" x="1546" y="4611"><tspan fill="rgb(0,0,0)" stroke="none">5500</tspan></tspan></tspan></text>
 <text class="TextShape"><tspan class="TextParagraph" font-family="Liberation Sans, sans-serif" font-size="353px" font-weight="400"><tspan class="TextPosition" x="1546" y="3271"/><tspan class="TextPosition" x="1546" y="3271"><tspan fill="rgb(0,0,0)" stroke="none">6000</tspan></tspan></tspan></text>
 <text class="TextShape"><tspan class="TextParagraph" font-family="Liberation Sans, sans-serif" font-size="353px" font-weight="400"><tspan class="TextPosition" x="1546" y="1931"/><tspan class="TextPosition" x="1546" y="1931"><tspan fill="rgb(0,0,0)" stroke="none">6500</tspan></tspan></tspan></text>
 <text class="TextShape"><tspan class="TextParagraph" font-family="Liberation Sans, sans-serif" font-size="459px" font-weight="400"><tspan class="TextPosition" x="9316" y="1033"/><tspan class="TextPosition" x="9316" y="1033"><tspan fill="rgb(0,0,0)" stroke="none">Proximity sensor response for 3 entry by Misty</tspan></tspan></tspan></text>
 <path fill="none" stroke="rgb(0,69,134)" stroke-width="80" stroke-linejoin="round" d="M 25325,8284 L 26125,8284"/>
 <path fill="rgb(0,69,134)" stroke="none" d="M 25619,8179 L 25619,8390 25830,8390 25830,8179 25619,8179 Z"/>
 <path fill="none" stroke="rgb(0,69,134)" stroke-linejoin="round" d="M 25619,8179 L 25619,8390 25830,8390 25830,8179 25619,8179 Z"/>
 <path fill="none" stroke="rgb(255,66,14)" stroke-width="80" stroke-linejoin="round" d="M 25325,8779 L 26125,8779"/>
 <path fill="rgb(255,66,14)" stroke="none" d="M 25619,8779 L 25725,8884 25830,8779 25725,8674 25619,8779 Z"/>
 <path fill="none" stroke="rgb(255,66,14)" stroke-linejoin="round" d="M 25619,8779 L 25725,8884 25830,8779 25725,8674 25619,8779 Z"/>
 <path fill="none" stroke="rgb(255,211,32)" stroke-width="80" stroke-linejoin="round" d="M 25325,9273 L 26125,9273"/>
 <path fill="rgb(255,211,32)" stroke="none" d="M 25619,9168 L 25725,9379 25830,9168 25619,9168 Z"/>
 <path fill="none" stroke="rgb(255,211,32)" stroke-linejoin="round" d="M 25619,9168 L 25725,9379 25830,9168 25619,9168 Z"/>
 <text class="TextShape"><tspan class="TextParagraph" font-family="Liberation Sans, sans-serif" font-size="353px" font-weight="400"><tspan class="TextPosition" x="26225" y="8405"/><tspan class="TextPosition" x="26225" y="8405"><tspan fill="rgb(0,0,0)" stroke="none">Entry #1</tspan></tspan></tspan></text>
 <text class="TextShape"><tspan class="TextParagraph" font-family="Liberation Sans, sans-serif" font-size="353px" font-weight="400"><tspan class="TextPosition" x="26225" y="8899"/><tspan class="TextPosition" x="26225" y="8899"><tspan fill="rgb(0,0,0)" stroke="none">Entry #2</tspan></tspan></tspan></text>
 <text class="TextShape"><tspan class="TextParagraph" font-family="Liberation Sans, sans-serif" font-size="353px" font-weight="400"><tspan class="TextPosition" x="26225" y="9394"/><tspan class="TextPosition" x="26225" y="9394"><tspan fill="rgb(0,0,0)" stroke="none">Entry #3</tspan></tspan></tspan></text>
 <text class="TextShape"><tspan class="TextParagraph" font-family="Liberation Sans, sans-serif" font-size="318px" font-weight="400"><tspan class="TextPosition" x="10906" y="16983"/><tspan class="TextPosition" x="10906" y="16983"><tspan fill="rgb(0,0,0)" stroke="none">normalized time (arbitrary start)</tspan></tspan></tspan></text>
 <text class="TextShape"><tspan class="TextParagraph" font-family="Liberation Sans, sans-serif" font-size="318px" font-weight="400"><tspan class="TextPosition" x="833" y="9399" transform="translate(833,9399) rotate(-90) translate(-833,-9399)"/><tspan class="TextPosition" x="833" y="9399" transform="translate(833,9399) rotate(-90) translate(-833,-9399)"><tspan fill="rgb(0,0,0)" stroke="none">counts</tspan></tspan></tspan></text>
</svg>